<?xml version="1.0" standalone="no"?>
<!DOCTYPE svg PUBLIC "-//W3C//DTD SVG 20010904//EN"
 "http://www.w3.org/TR/2001/REC-SVG-20010904/DTD/svg10.dtd">
<svg version="1.0" xmlns="http://www.w3.org/2000/svg"
 width="768.000000pt" height="519.000000pt" viewBox="0 0 768.000000 519.000000"
 preserveAspectRatio="xMidYMid meet">

<g transform="translate(0.000000,519.000000) scale(0.100000,-0.100000)"
fill="#000000" stroke="none">
<path d="M0 2926 c0 -2076 1 -2265 16 -2277 9 -7 46 -15 83 -17 56 -3 70 -1
94 18 26 21 27 25 27 118 0 109 23 329 39 382 19 63 50 90 106 95 115 10 152
18 186 40 20 13 63 35 95 48 l59 25 37 -21 c20 -12 40 -18 45 -14 16 17 18
198 14 1296 l-3 1113 -54 -6 c-30 -3 -107 -9 -173 -13 -111 -6 -121 -5 -155
16 -30 19 -36 28 -36 57 0 18 8 53 17 76 9 23 12 43 7 45 -5 2 -24 12 -42 23
-33 20 -34 22 -27 73 8 57 40 119 81 158 31 28 54 70 54 97 0 11 -10 41 -21
67 -24 54 -21 127 6 183 29 56 97 117 147 131 46 13 48 13 94 -18 65 -42 77
-40 97 17 16 45 21 177 18 470 l-1 82 -405 0 -405 0 0 -2264z"/>
<path d="M1510 4733 c0 -399 -2 -461 -16 -481 -8 -12 -13 -22 -10 -22 3 0 2
-11 -3 -23 -6 -14 -6 -151 -1 -327 7 -233 6 -310 -3 -329 -16 -33 -100 -73
-159 -77 -28 -1 -57 -10 -71 -21 -23 -17 -51 -79 -43 -92 6 -9 28 -277 28
-341 0 -30 -9 -84 -21 -119 -12 -35 -21 -78 -20 -95 0 -31 37 -153 38 -128 1
6 7 12 14 12 7 0 19 9 27 20 8 11 26 20 40 20 37 0 147 -55 160 -81 20 -36 35
-226 22 -275 -17 -63 -4 -447 15 -440 11 4 11 1 3 -15 -6 -11 -15 -17 -20 -14
-4 3 -6 -4 -3 -15 3 -11 -2 -27 -12 -36 -16 -17 -12 -22 75 -106 50 -49 96
-88 102 -86 9 3 33 72 74 215 13 47 13 60 -2 130 -10 43 -17 125 -18 183 -1
94 1 108 22 137 22 32 28 53 14 53 -4 0 -16 -17 -26 -37 -10 -21 -22 -45 -27
-53 -31 -53 -47 -89 -54 -120 -8 -37 -84 -195 -90 -188 -2 2 9 32 25 66 23 46
30 78 32 127 1 36 4 61 7 56 13 -20 5 205 -8 227 -16 30 -9 205 10 228 7 9 14
50 17 97 3 67 -1 97 -22 166 -30 97 -33 173 -12 283 8 40 17 114 21 163 9 113
12 143 24 230 5 39 9 146 9 238 1 139 3 172 16 186 9 10 16 22 16 27 0 11 56
49 90 62 14 5 79 10 145 11 66 0 241 6 390 12 253 10 272 12 317 35 64 32 177
34 248 3 47 -20 61 -21 342 -17 193 3 311 9 345 18 50 13 52 15 63 59 15 61
69 198 83 214 7 7 17 22 23 32 12 22 63 54 79 49 52 -14 65 -14 65 1 0 8 6 15
13 15 7 0 23 11 35 25 14 16 33 25 54 26 18 1 51 3 73 6 22 3 71 5 109 4 55
-1 71 2 83 16 8 10 11 12 8 5 -10 -19 44 -13 68 7 16 13 18 13 15 1 -2 -11 5
-14 30 -12 33 3 67 -22 56 -40 -3 -5 2 -8 10 -8 8 0 19 -7 24 -17 6 -10 21
-16 41 -15 20 0 31 -4 31 -13 0 -7 15 -24 33 -36 17 -13 38 -30 46 -37 9 -8
25 -12 41 -8 24 4 27 2 23 -19 -4 -16 1 -26 15 -34 27 -14 73 -109 64 -130 -4
-9 -7 -28 -6 -43 0 -16 -3 -28 -7 -28 -5 0 -9 4 -9 8 0 5 -12 15 -27 23 -26
13 -38 24 -111 106 -15 18 -41 37 -56 43 -54 20 -137 9 -202 -27 -21 -12 -59
-8 -82 10 -9 7 -19 4 -35 -10 -12 -11 -28 -18 -34 -16 -7 3 -13 0 -13 -5 0 -5
7 -13 16 -16 10 -4 13 -13 9 -27 -5 -14 -3 -19 4 -15 7 4 10 -6 9 -29 -1 -19
-5 -35 -10 -35 -4 0 -8 4 -8 8 0 5 -19 9 -42 9 -24 0 -57 7 -75 16 -34 18
-149 38 -170 30 -10 -4 -9 -10 2 -26 8 -12 12 -31 9 -44 -4 -13 -1 -30 6 -38
11 -13 7 -15 -23 -15 -19 0 -48 -7 -63 -15 -18 -9 -23 -15 -12 -15 9 0 20 5
23 10 3 6 17 10 30 10 13 0 27 -4 30 -10 3 -5 15 -10 25 -10 10 0 22 -5 25
-11 5 -7 -3 -10 -21 -8 -48 5 -145 -12 -141 -25 2 -6 18 -20 35 -31 37 -23 40
-35 12 -42 -16 -4 -18 -8 -9 -19 14 -17 9 -17 -25 -4 -34 13 -34 -4 1 -36 41
-38 85 -42 202 -18 26 6 32 4 26 -6 -5 -8 -3 -11 6 -8 8 3 13 11 11 17 -1 7 1
10 6 8 16 -11 52 30 65 72 14 49 53 75 64 43 3 -9 11 -23 17 -31 6 -7 9 -45 7
-86 -3 -77 6 -104 62 -176 15 -20 27 -44 27 -53 0 -15 -4 -15 -40 5 -22 12
-42 30 -45 40 -6 18 -53 39 -86 39 -10 0 -29 -11 -43 -25 l-25 -25 -35 21
c-27 16 -41 18 -67 12 -47 -13 -47 -31 0 -51 22 -9 41 -20 41 -23 0 -3 -9 -16
-20 -29 -23 -27 -25 -37 -7 -43 8 -3 5 -11 -10 -26 -25 -24 -74 -27 -134 -9
-41 12 -45 17 -30 46 5 9 14 29 21 44 7 15 44 60 81 100 38 40 69 76 69 80 0
3 -8 5 -17 3 -10 -2 -56 -9 -102 -16 -82 -12 -84 -12 -114 -55 -23 -32 -38
-44 -56 -44 -62 0 -101 -12 -101 -31 0 -11 -4 -19 -9 -19 -14 0 -27 -120 -19
-175 10 -66 30 -135 40 -135 8 0 9 18 12 125 1 28 6 61 10 75 10 29 82 100
102 100 18 0 19 2 -15 -73 -17 -38 -27 -74 -24 -89 3 -13 -3 -42 -11 -63 -19
-43 -14 -70 15 -86 26 -13 47 2 47 36 0 13 11 38 26 55 14 17 26 36 26 42 0 6
7 5 18 -4 24 -21 66 -22 58 -1 -11 29 11 41 70 38 56 -4 114 -21 114 -34 0 -4
13 -6 29 -3 21 3 33 -2 49 -23 12 -15 26 -24 31 -21 6 4 15 -2 21 -13 6 -11 6
-22 1 -25 -12 -8 -113 12 -125 24 -6 6 -22 10 -36 10 -14 0 -35 6 -46 14 -26
19 -76 24 -81 10 -2 -6 20 -24 49 -39 29 -16 64 -34 78 -42 14 -7 34 -13 45
-13 11 -1 44 -11 74 -24 l55 -24 -40 -6 c-34 -5 -124 11 -138 24 -2 3 -36 3
-76 2 -56 -3 -70 -7 -66 -18 7 -18 -29 -51 -66 -59 -30 -7 -33 -22 -11 -75 14
-34 7 -41 -36 -37 -49 4 -78 26 -84 62 -7 53 -17 65 -45 58 -22 -5 -24 -3 -20
14 6 21 -26 73 -37 61 -4 -3 -2 -23 4 -43 8 -30 7 -42 -4 -59 -8 -11 -15 -28
-15 -37 0 -10 -11 -26 -24 -36 -27 -22 -45 -65 -24 -61 8 2 13 -7 13 -22 0
-14 3 -30 8 -37 4 -6 3 -14 -3 -18 -5 -3 -10 -20 -10 -37 0 -21 -4 -29 -13
-25 -9 3 -16 -18 -26 -77 -7 -44 -17 -85 -23 -91 -8 -7 -9 -5 -5 8 6 15 -3 21
-25 18 -6 0 -24 125 -20 142 1 4 -5 7 -15 7 -9 0 -13 -3 -10 -7 4 -3 2 -12 -3
-19 -6 -6 -10 -16 -9 -20 4 -17 -24 -63 -34 -57 -6 3 -7 1 -3 -6 4 -6 12 -8
18 -5 6 4 8 1 4 -7 -3 -8 -9 -22 -12 -31 -4 -10 -10 -18 -15 -18 -5 0 -5 -7
-2 -17 5 -11 3 -14 -6 -8 -10 6 -11 3 -2 -13 16 -29 14 -37 -6 -21 -15 13 -15
12 -3 -10 11 -21 10 -23 -3 -18 -14 5 -15 2 -7 -19 7 -18 7 -23 -1 -18 -9 5
-10 -1 -5 -20 4 -18 3 -25 -4 -21 -9 6 -14 -15 -13 -52 1 -7 -3 -13 -8 -13 -5
0 -7 17 -3 38 3 20 5 45 5 55 0 9 5 17 10 17 6 0 8 4 5 8 -3 5 1 48 9 97 8 49
13 91 10 93 -8 9 -25 -10 -25 -29 0 -11 -7 -22 -15 -25 -8 -4 -15 -15 -15 -25
0 -11 -7 -19 -16 -19 -10 0 -14 -5 -10 -16 3 -9 2 -12 -4 -9 -13 8 -49 -34
-50 -58 0 -10 -8 -20 -17 -24 -10 -3 -26 -13 -35 -21 -10 -8 -18 -11 -18 -7 0
13 -70 -57 -70 -69 0 -6 -7 -19 -15 -30 -13 -17 -15 -17 -52 10 -21 16 -55 43
-76 61 -48 42 -81 42 -138 0 -45 -34 -86 -52 -152 -68 -50 -12 -117 -46 -117
-59 0 -20 55 -32 115 -26 33 3 101 12 150 21 169 29 206 30 222 10 18 -25 17
-46 -2 -39 -8 4 -15 2 -15 -3 0 -5 -14 -10 -31 -11 -17 -1 -40 -7 -52 -13 -11
-6 -65 -11 -120 -11 -54 0 -122 -6 -150 -13 -28 -7 -56 -11 -62 -8 -7 2 -15
-3 -18 -11 -4 -9 -15 -16 -26 -16 -11 0 -32 -10 -48 -23 -15 -13 -35 -26 -44
-29 -9 -4 -22 -28 -28 -55 -7 -26 -27 -74 -44 -105 -17 -31 -28 -60 -25 -64 4
-3 26 14 50 38 24 25 85 69 137 98 l93 53 50 -12 c27 -6 123 -11 214 -11 93 0
164 -4 164 -9 0 -5 3 -17 6 -25 5 -12 2 -15 -10 -10 -9 3 -22 1 -29 -5 -8 -6
-66 -10 -146 -10 -86 0 -138 -4 -147 -12 -8 -6 -25 -9 -38 -5 -32 8 -77 -10
-99 -39 -18 -25 -18 -25 5 -26 13 -1 42 -1 64 0 32 2 49 -3 69 -21 36 -32 55
-36 166 -37 66 -1 101 -5 115 -15 33 -25 4 -35 -111 -37 -87 -1 -117 2 -146
16 -49 24 -84 11 -128 -46 -18 -24 -38 -46 -45 -48 -6 -2 -15 -10 -19 -18 -5
-7 -13 -11 -18 -7 -6 3 -18 -1 -29 -11 -20 -18 -47 -20 -109 -6 -2 1 2 8 9 16
7 9 10 18 7 21 -10 10 -72 -28 -108 -67 -20 -22 -45 -39 -57 -39 -11 0 -27 -3
-35 -6 -17 -6 -39 26 -43 66 -2 14 14 61 36 105 41 85 79 193 82 237 1 15 5
25 9 22 14 -8 17 25 4 43 -8 10 -15 13 -15 6 0 -8 -21 -12 -67 -11 -93 1 -223
-45 -223 -79 0 -10 10 -8 39 7 64 32 185 58 216 46 33 -12 3 -33 -58 -39 -78
-8 -148 -32 -181 -62 -14 -13 -26 -21 -26 -18 0 3 -7 0 -15 -7 -10 -9 -13 -27
-10 -65 8 -110 39 -245 56 -245 4 0 33 28 64 63 31 34 51 51 44 37 -6 -14 -19
-32 -28 -41 -9 -9 -23 -26 -31 -38 -8 -11 -21 -21 -30 -21 -12 0 -12 -2 -1 -9
9 -6 10 -11 2 -15 -6 -4 -11 -3 -11 3 0 6 -7 8 -15 5 -8 -4 -15 -11 -15 -18 0
-6 -12 -28 -26 -49 -25 -38 -29 -77 -7 -84 10 -4 78 72 126 141 10 14 23 26
29 26 7 0 0 -12 -13 -27 -14 -16 -34 -41 -43 -57 -10 -16 -37 -49 -59 -73 -39
-43 -40 -44 -28 -83 17 -57 53 -116 112 -183 46 -52 45 -63 -2 -25 -33 28
-105 126 -128 176 l-25 53 -20 -24 c-36 -39 -76 -71 -76 -59 0 6 21 30 46 54
44 41 45 44 39 85 -5 34 -2 49 14 72 12 16 21 35 21 43 0 11 2 11 9 -1 5 -7
11 -9 14 -4 6 10 -4 55 -28 129 -8 23 -17 76 -21 118 -4 42 -11 76 -16 76 -11
0 -3 -104 18 -210 14 -73 18 -128 7 -102 -2 6 -9 10 -14 6 -5 -3 -9 -4 -9 -2
-1 2 -8 37 -16 78 -9 41 -18 101 -21 133 -2 31 -9 57 -14 57 -5 0 -9 -7 -9
-15 0 -8 -4 -15 -10 -15 -5 0 -10 -8 -10 -17 0 -14 -2 -15 -9 -4 -29 45 -18
-78 21 -239 17 -72 24 -88 35 -79 9 8 13 8 13 0 0 -6 -9 -16 -20 -23 -11 -7
-20 -18 -20 -24 0 -6 -9 -19 -20 -29 -18 -17 -20 -17 -20 -1 0 9 6 19 14 22
11 4 12 12 7 27 -5 12 -14 55 -21 96 -8 46 -15 69 -20 60 -15 -27 -53 -175
-65 -254 -7 -44 -13 -69 -14 -55 -1 18 -4 21 -13 12 -9 -9 -20 -3 -48 26 -21
20 -54 51 -75 67 -21 17 -52 42 -70 58 -37 31 -50 34 -59 11 -4 -10 -2 -13 7
-8 9 6 9 5 0 -8 -7 -8 -10 -18 -6 -22 4 -4 0 -4 -10 0 -43 16 -10 -27 77 -101
52 -44 97 -86 100 -93 9 -21 -12 -13 -47 18 -19 17 -38 30 -42 30 -3 0 -33 21
-66 46 -74 57 -78 35 -4 -26 30 -25 55 -51 55 -57 0 -7 8 -13 18 -13 23 0 68
-45 53 -54 -5 -4 -25 7 -44 24 -19 16 -38 30 -42 30 -5 0 -32 18 -61 40 -55
42 -80 51 -71 25 4 -8 2 -17 -4 -20 -5 -4 -6 -11 -3 -17 4 -6 2 -8 -4 -4 -6 3
-13 2 -16 -2 -6 -10 58 -74 115 -115 20 -15 36 -34 36 -42 0 -16 -13 -20 -21
-6 -10 16 -156 111 -156 101 0 -14 29 -41 96 -90 33 -24 61 -45 63 -46 2 -2 1
-10 -3 -19 -5 -13 -12 -12 -48 11 -24 15 -62 42 -86 61 -34 28 -43 31 -48 19
-3 -8 -3 -19 0 -24 3 -6 -3 -12 -13 -15 -10 -2 -21 -17 -25 -33 -20 -80 -49
-124 -116 -179 -66 -54 -120 -114 -120 -133 0 -5 -6 -15 -14 -21 -27 -22 -69
-175 -63 -228 18 -160 24 -175 70 -166 19 4 27 12 27 27 0 15 3 17 8 8 9 -13
42 -6 42 9 0 5 5 9 10 9 6 0 10 -10 10 -22 -1 -27 -43 -78 -64 -78 -8 0 -18
-5 -21 -11 -5 -7 -15 -5 -31 6 -28 18 -31 13 -8 -14 20 -22 47 -17 88 16 31
26 49 26 54 1 4 -19 -30 -52 -72 -73 -37 -19 -46 -19 -62 3 -12 16 -13 16 -14
0 0 -9 5 -20 10 -23 6 -4 8 -11 4 -16 -10 -17 68 2 98 22 14 11 30 19 35 19 4
0 1 -5 -7 -10 -8 -5 -15 -17 -15 -27 0 -11 -15 -25 -38 -36 -37 -17 -63 -15
-52 4 4 5 -1 9 -9 9 -21 0 -20 -13 2 -33 22 -20 68 -22 79 -4 12 19 60 40 77
34 9 -4 17 1 20 11 3 10 23 26 43 37 20 11 50 31 66 44 26 22 30 23 45 8 14
-15 14 -18 -3 -37 -26 -29 -118 -80 -144 -80 -12 0 -19 -4 -16 -10 3 -5 2 -10
-3 -10 -12 0 -64 -52 -58 -57 2 -3 52 23 111 56 59 34 111 61 115 61 4 0 10
-9 13 -20 4 -16 -4 -27 -34 -46 -22 -14 -52 -30 -67 -36 -15 -7 -51 -27 -80
-46 -40 -26 -50 -37 -41 -46 8 -8 13 -8 16 2 3 6 9 10 14 7 4 -3 21 2 36 11
l28 16 -27 -21 c-15 -12 -25 -27 -22 -34 3 -8 -15 -20 -45 -32 -48 -18 -59
-35 -22 -35 21 0 71 22 71 33 0 4 8 7 18 7 10 0 26 6 37 13 11 7 36 20 55 27
19 7 48 23 64 34 16 11 27 15 23 9 -4 -6 -4 -13 0 -16 5 -2 2 -2 -5 -1 -7 2
-15 -3 -18 -11 -4 -8 -10 -12 -15 -9 -5 3 -9 -1 -9 -8 -1 -13 -73 -68 -90 -68
-6 0 -10 -4 -10 -9 0 -4 -20 -19 -44 -32 -25 -13 -43 -27 -40 -31 5 -7 34 0
44 11 10 12 50 31 65 31 8 0 15 4 15 9 0 5 12 12 28 17 40 11 62 12 62 3 0 -5
-5 -9 -10 -9 -6 0 -41 -22 -77 -50 -36 -27 -70 -50 -74 -50 -15 0 -10 -22 9
-36 11 -9 50 -13 117 -14 l100 0 79 51 c43 27 106 64 140 81 134 68 223 144
289 250 20 31 45 61 55 67 18 9 20 6 24 -32 5 -44 55 -157 70 -157 10 0 -1
-80 -13 -96 -10 -13 -59 -140 -59 -154 0 -6 110 -10 298 -10 l297 0 1 118 c0
117 18 388 30 463 5 32 4 39 -10 39 -9 0 -20 10 -25 23 -11 28 6 36 24 11 16
-23 18 -18 35 76 6 36 13 79 16 95 3 17 7 41 9 55 2 14 9 45 16 70 12 46 15
62 25 138 3 23 10 42 14 42 5 0 15 3 24 6 13 5 15 -3 11 -56 -3 -34 -7 -66
-11 -71 -3 -5 -7 -19 -10 -31 -11 -57 -37 -217 -41 -258 -2 -25 -7 -52 -10
-60 -3 -8 -5 -23 -4 -32 1 -10 -3 -26 -8 -37 -11 -20 -20 -86 -51 -390 -11
-107 -18 -196 -16 -199 10 -9 33 126 41 238 3 47 13 126 22 175 9 50 17 98 18
107 0 10 4 21 8 24 4 4 4 18 1 30 -4 13 -3 32 1 41 5 10 7 28 6 40 -1 13 1 28
5 35 9 14 13 37 17 88 1 19 5 40 8 45 4 6 7 23 7 39 0 15 3 31 8 35 5 3 10 20
12 36 1 17 5 44 7 60 2 17 6 44 8 60 3 17 9 41 14 55 6 14 8 31 5 39 -3 10 0
12 11 8 9 -3 18 -1 21 6 2 7 2 -17 -1 -53 -2 -36 -4 -76 -4 -90 0 -14 -2 -32
-6 -40 -6 -15 -8 -25 -16 -92 -3 -21 -8 -46 -12 -58 -5 -15 0 -23 18 -31 37
-17 96 17 112 64 13 37 3 74 -13 50 -4 -7 -22 -13 -39 -15 -23 -1 -29 -6 -25
-18 5 -13 3 -13 -11 -2 -17 14 -12 46 6 35 6 -4 8 0 4 10 -3 9 1 18 11 22 13
5 14 8 3 14 -14 9 -12 42 4 43 6 0 15 -9 21 -21 10 -19 12 -20 18 -6 3 9 6 27
6 39 0 12 5 27 11 33 6 6 12 21 13 34 8 62 38 195 67 299 17 63 37 136 42 163
6 26 14 47 19 47 4 0 5 6 3 13 -3 6 0 19 5 27 24 36 41 -50 19 -92 -7 -12 -17
-44 -24 -72 -7 -28 -25 -91 -38 -141 -26 -90 -57 -252 -57 -290 1 -35 26 23
39 90 23 117 34 161 72 282 22 67 39 130 39 140 1 43 60 76 60 33 0 -11 -18
-73 -39 -137 -58 -172 -112 -350 -118 -389 -6 -33 8 -47 23 -23 5 8 9 8 14 -1
11 -18 32 -2 25 19 -3 10 1 24 10 31 8 7 15 23 15 35 0 21 23 100 96 325 21
65 22 75 9 83 -9 4 -13 13 -10 18 4 5 11 7 16 4 5 -4 13 4 18 17 18 49 63 307
67 391 5 86 2 93 -28 88 -5 0 -8 9 -7 22 0 12 3 16 6 10 3 -10 8 -9 20 2 13
13 13 17 -2 31 -12 12 -13 19 -4 30 7 9 9 34 5 71 -6 58 15 153 34 153 5 0 7
6 4 14 -8 21 32 106 50 106 8 0 68 -15 133 -34 65 -19 160 -39 211 -46 110
-15 311 -8 391 14 87 24 211 89 279 146 l63 53 -7 -39 c-4 -21 -7 -52 -6 -69
0 -16 -11 -57 -25 -89 -27 -61 -55 -157 -49 -164 4 -3 11 15 48 122 13 39 41
66 54 53 4 -4 0 -15 -8 -24 -19 -22 -51 -84 -46 -89 3 -2 19 16 36 41 17 25
36 45 41 45 21 0 18 -31 -8 -72 -59 -93 -72 -138 -35 -124 8 3 14 1 14 -5 0
-6 5 -7 10 -4 6 3 10 2 10 -3 0 -16 30 -23 50 -12 25 14 31 1 24 -53 -5 -31
-10 -44 -19 -40 -15 5 -29 -16 -39 -58 -7 -31 7 -41 41 -28 20 7 21 12 13 34
-8 20 -6 27 5 31 7 3 17 20 21 37 3 17 10 38 15 47 16 29 28 114 18 131 -6 12
-5 20 2 24 13 9 14 8 26 -41 8 -31 7 -51 -3 -79 -11 -34 -11 -38 7 -42 20 -6
26 -28 9 -38 -5 -3 -10 1 -10 9 0 23 -17 19 -23 -5 -4 -15 0 -23 14 -26 25 -7
19 -27 -8 -31 -13 -2 -24 -13 -28 -30 -5 -22 -42 -109 -51 -120 -1 -2 -16 -1
-33 3 -22 5 -31 12 -31 27 0 20 9 21 53 3 11 -5 17 -3 17 7 0 8 -15 19 -34 25
-31 9 -35 8 -48 -16 -20 -34 -28 -69 -38 -161 -19 -166 -70 -440 -82 -440 -4
0 -6 12 -3 28 2 15 7 81 10 147 3 66 8 140 11 164 4 35 2 43 -9 38 -8 -3 -20
0 -26 6 -20 20 -30 -5 -51 -138 -12 -72 -29 -179 -39 -238 -15 -93 -15 -107
-2 -102 44 17 105 25 115 15 5 -5 24 -10 41 -10 17 0 40 -7 51 -15 26 -20 64
-18 167 9 48 12 90 19 92 16 2 -4 -20 -12 -50 -19 -30 -7 -55 -18 -56 -24 0
-7 0 -41 0 -76 -1 -59 -2 -62 -15 -42 -20 28 -32 27 -40 -4 -6 -23 -24 -36
-24 -16 0 10 -71 -5 -117 -25 -17 -8 -49 -14 -71 -14 -23 0 -43 -4 -46 -8 -3
-5 -82 -9 -176 -11 -182 -2 -208 -6 -504 -76 -83 -19 -157 -35 -165 -35 -8 0
-22 -6 -30 -14 -20 -18 -91 -32 -91 -18 0 5 14 12 32 16 17 3 28 9 25 12 -3 3
-30 1 -59 -5 -29 -7 -72 -16 -96 -22 -23 -5 -58 -9 -77 -9 -28 0 -38 -5 -46
-24 -14 -29 -41 -38 -91 -29 -31 4 -38 3 -38 -11 0 -9 -7 -19 -16 -23 -15 -6
-16 -31 -10 -267 3 -144 9 -321 12 -393 l7 -133 1038 0 c917 0 1039 2 1039 15
0 8 4 15 10 15 5 0 7 -7 4 -15 -5 -13 42 -15 389 -15 l395 0 6 23 c8 29 8 82
0 90 -3 3 -12 3 -19 0 -11 -3 -11 -11 -4 -31 l10 -26 -25 27 c-32 35 -32 37 0
37 21 0 25 3 18 18 -4 9 -11 64 -14 122 -4 58 -12 121 -19 140 -7 19 -15 76
-19 125 -5 66 -11 89 -20 87 -9 -2 -12 6 -10 20 2 13 9 22 16 21 6 -2 12 3 12
10 0 16 -76 23 -93 9 -17 -13 -136 -22 -177 -13 -32 7 -33 8 -12 15 12 4 57
11 100 16 42 4 98 15 124 23 26 8 49 12 52 9 4 -3 6 6 6 19 0 19 -2 21 -10 9
-7 -12 -11 -10 -18 10 -7 19 -6 26 4 28 8 2 14 8 14 14 0 7 -20 8 -58 4 -60
-7 -125 1 -117 14 2 4 27 10 54 14 57 7 111 25 111 35 0 9 -198 -13 -255 -28
-51 -13 -58 -13 -50 -1 3 5 14 10 25 10 10 0 20 6 23 13 3 8 37 19 84 26 95
15 165 31 176 41 5 4 4 18 -3 30 -8 16 -8 25 0 35 17 21 -1 25 -71 15 -86 -13
-122 -13 -114 1 4 6 13 8 21 5 8 -3 14 -1 14 4 0 10 97 40 128 40 12 0 24 4
27 10 4 6 -20 9 -64 8 -96 -3 -112 15 -30 33 75 17 100 36 73 56 -16 12 -13
18 9 14 10 -1 9 4 -7 41 -8 18 -29 80 -46 137 -47 154 -86 246 -104 245 -48
-2 -57 -6 -70 -31 -8 -16 -15 -22 -16 -15 0 7 -4 11 -8 8 -5 -3 -15 6 -22 19
-18 34 -24 32 -37 -16 -8 -32 -8 -43 4 -55 20 -20 26 -18 20 8 -3 13 -2 32 3
43 7 19 8 18 14 -5 7 -26 -17 -100 -33 -100 -4 0 -12 10 -18 22 -6 14 -12 18
-17 10 -4 -6 3 -21 14 -32 21 -21 21 -50 -1 -50 -6 0 -13 9 -16 20 -6 24 -19
26 -27 3 -17 -43 -153 -243 -165 -243 -8 0 -11 -3 -8 -6 10 -10 -13 -45 -24
-39 -5 4 -8 3 -7 -2 8 -30 -26 -66 -45 -47 -8 8 28 79 63 124 37 49 150 248
150 265 0 28 -15 15 -49 -43 -71 -118 -153 -213 -107 -124 8 16 13 32 10 34
-3 3 11 33 31 66 19 33 35 63 35 67 0 3 7 13 15 21 9 9 13 25 9 38 -4 18 -1
25 17 29 19 5 20 8 9 21 -7 9 -19 16 -26 16 -17 0 -17 4 0 38 7 15 17 41 20
58 7 30 5 32 -61 66 -37 20 -84 39 -103 43 -119 24 -210 49 -210 59 0 6 -4 5
-9 -3 -8 -12 -14 -13 -36 -3 -14 7 -29 12 -33 12 -4 0 -6 -28 -6 -62 1 -37 -3
-66 -10 -70 -8 -5 -8 -10 1 -19 8 -8 9 -18 3 -28 -4 -9 -13 -99 -19 -201 -6
-102 -17 -212 -25 -245 -17 -74 -19 -55 -6 72 5 54 12 177 15 273 2 96 9 213
15 260 8 72 29 293 30 325 0 6 4 4 9 -4 5 -8 7 -20 5 -26 -3 -7 14 -17 43 -25
26 -8 58 -20 69 -27 12 -8 41 -18 65 -23 l44 -9 -50 3 c-46 4 -48 3 -25 -9 29
-14 72 -23 155 -30 33 -3 81 -16 108 -29 26 -12 47 -20 47 -17 0 19 -97 101
-119 101 -5 0 -45 29 -88 64 -82 68 -110 79 -52 22 47 -47 89 -101 89 -116 0
-13 -38 -4 -55 12 -7 7 -2 8 15 3 l25 -7 -21 18 c-40 37 -114 135 -109 145 4
5 1 9 -4 9 -6 0 -28 18 -50 41 -24 26 -41 37 -45 30 -4 -6 -11 -11 -16 -11 -4
0 1 17 11 37 24 47 24 80 -1 120 -27 45 -31 41 -12 -11 13 -36 14 -49 4 -71
-10 -21 -16 -24 -25 -16 -11 8 -13 4 -9 -22 2 -17 9 -38 14 -44 7 -9 7 -13 -1
-13 -6 0 -11 -8 -12 -17 0 -10 -8 14 -17 54 -15 63 -24 79 -66 123 -27 28 -52
47 -55 42 -3 -5 -15 -14 -26 -20 -18 -11 -17 -12 9 -6 28 7 28 6 13 -17 -9
-13 -36 -35 -61 -48 -24 -14 -42 -29 -40 -35 6 -16 -12 -40 -24 -32 -13 8 -6
33 16 59 15 16 14 17 -2 11 -10 -4 -24 -21 -31 -37 -12 -28 -13 -29 -19 -9 -6
16 2 29 31 57 23 22 45 34 55 31 10 -2 21 1 25 6 3 7 1 8 -5 4 -25 -15 -10 14
18 36 l31 24 -41 42 c-22 24 -40 48 -40 53 0 6 -11 20 -24 30 -23 18 -71 89
-60 89 3 0 15 -5 27 -11 20 -11 20 -10 -3 16 -23 26 -127 99 -152 107 -19 7
106 374 142 413 9 11 34 46 55 77 33 50 39 55 52 43 18 -19 63 -19 88 -2 19
15 13 37 -11 37 -8 0 -14 7 -14 15 0 11 8 13 30 9 27 -6 32 -3 46 27 14 32 14
13 -1 -23 -5 -13 1 -18 32 -24 21 -4 46 -11 56 -16 13 -7 31 -5 58 6 45 18
180 21 248 5 24 -5 125 -14 225 -18 156 -7 188 -12 229 -31 43 -20 52 -21 95
-10 26 6 58 16 72 22 14 6 39 14 55 18 29 6 349 -1 658 -15 102 -4 150 -2 198
9 45 10 136 15 305 17 l240 3 75 -41 c92 -50 108 -54 189 -44 72 9 95 2 106
-31 8 -24 12 -179 16 -624 l3 -271 -30 -39 c-16 -21 -39 -47 -50 -56 -26 -22
-90 -38 -123 -31 -38 7 -36 8 -147 -10 -55 -9 -119 -16 -143 -15 -24 0 -49 -5
-55 -11 -18 -18 -75 -13 -86 8 -9 16 -28 19 -163 24 -176 7 -210 14 -264 61
-28 24 -44 31 -59 26 -21 -7 -65 7 -65 22 0 13 -20 9 -37 -8 -15 -15 -15 -18
-1 -42 9 -15 25 -31 37 -37 12 -5 21 -15 21 -20 0 -36 27 -66 69 -77 29 -7 61
-28 100 -63 l56 -53 -2 -113 c-1 -101 -3 -115 -22 -130 -11 -9 -23 -35 -27
-57 -6 -40 -6 -41 30 -47 20 -4 51 -5 69 -1 36 6 281 -7 497 -27 80 -8 156
-14 170 -15 75 -1 161 -12 179 -22 12 -6 21 -8 21 -4 0 3 14 -6 31 -20 17 -14
35 -26 40 -26 5 0 9 425 9 1077 l0 1076 -262 -7 c-394 -11 -469 -17 -502 -41
-81 -58 -94 -62 -168 -57 -61 3 -78 9 -130 43 l-60 38 -192 -5 c-105 -2 -218
-6 -251 -9 -33 -2 -134 1 -225 7 -192 12 -817 20 -937 11 -68 -4 -83 -8 -83
-22 0 -12 -2 -13 -9 -3 -4 7 -28 14 -52 15 -54 2 -54 9 -9 122 29 75 79 300
82 372 1 27 3 29 15 17 8 -8 17 -14 21 -14 4 0 457 -2 1007 -5 1120 -5 1126
-5 1460 -44 98 -11 90 -31 92 232 3 237 7 263 46 320 22 32 89 67 129 67 l28
0 0 200 0 200 -52 0 c-51 -1 -52 -1 -33 -18 36 -31 65 -74 65 -98 0 -28 -49
-87 -93 -111 -28 -15 -71 -17 -327 -21 -282 -4 -297 -3 -349 18 -101 39 -131
80 -131 176 l0 54 -178 -2 -177 -3 -2 -35 c-1 -19 -2 -40 -2 -47 -1 -12 -55
-43 -75 -43 -6 0 -23 -15 -38 -34 -15 -19 -49 -44 -75 -57 -26 -12 -51 -27
-54 -31 -8 -13 -332 -18 -464 -8 -60 4 -139 15 -175 23 -78 19 -69 19 -105 -7
-38 -27 -163 -30 -210 -4 -109 59 -138 168 -61 230 20 17 1 18 -391 18 -382 0
-438 -3 -403 -25 27 -17 -7 -105 -41 -105 -6 0 -17 -8 -24 -17 -11 -15 -17
-15 -39 -5 -15 6 -26 20 -26 31 0 29 -18 37 -110 50 -95 14 -160 37 -160 58 0
8 -13 13 -37 13 l-36 0 22 -24 c19 -20 22 -31 17 -61 -10 -54 -73 -115 -127
-126 -43 -8 -221 5 -242 18 -13 8 -177 12 -427 12 -107 -1 -217 -1 -244 0 -58
1 -124 29 -159 66 -21 23 -25 35 -21 71 l4 44 -79 0 c-44 0 -83 -4 -86 -10 -8
-13 -45 -13 -45 0 0 7 -7 7 -21 0 -46 -25 -119 -42 -209 -50 -74 -6 -110 -14
-164 -39 -90 -41 -175 -43 -229 -7 -40 27 -67 54 -83 82 -10 17 -25 19 -143
22 l-131 3 0 -458z m3374 81 c81 -52 127 -163 106 -258 -14 -63 -31 -95 -79
-146 l-39 -42 -23 43 c-34 68 -57 97 -158 196 -96 95 -172 149 -196 139 -8 -3
-17 -1 -20 4 -4 6 10 10 31 10 21 0 34 3 31 7 -9 9 41 37 123 70 57 22 171 11
224 -23z m-597 -10 c-3 -3 -12 -4 -19 -1 -8 3 -5 6 6 6 11 1 17 -2 13 -5z m56
-1 c-7 -2 -19 -2 -25 0 -7 3 -2 5 12 5 14 0 19 -2 13 -5z m-126 -16 c-5 -17
-43 -21 -49 -5 -4 9 4 14 24 15 19 2 28 -2 25 -10z m223 -2 l35 -14 -35 3
c-19 1 -46 8 -60 14 l-25 11 25 0 c14 0 41 -7 60 -14z m-283 -12 c6 -16 -41
-22 -55 -7 -9 10 -7 14 11 17 29 5 40 3 44 -10z m-72 -13 c3 -5 0 -7 -8 -4 -8
3 -18 1 -22 -5 -8 -13 -35 -15 -35 -2 0 9 20 17 47 20 6 0 15 -3 18 -9z m319
-36 c4 -11 0 -11 -19 2 -30 20 -31 24 -6 17 11 -3 22 -11 25 -19z m-398 4 c4
-7 3 -8 -4 -4 -6 4 -21 2 -32 -4 -12 -6 -20 -7 -20 -1 0 8 15 15 42 20 4 0 10
-4 14 -11z m379 -28 c-3 -5 -10 -10 -16 -10 -5 0 -9 5 -9 10 0 6 7 10 16 10 8
0 12 -4 9 -10z m-12 -37 c-7 -2 -19 -2 -25 0 -7 3 -2 5 12 5 14 0 19 -2 13 -5z
m-546 -85 c-3 -8 -6 -5 -6 6 -1 11 2 17 5 13 3 -3 4 -12 1 -19z m813 -72 c0
-3 -4 -8 -10 -11 -5 -3 -10 -1 -10 4 0 6 5 11 10 11 6 0 10 -2 10 -4z m-394
-274 c-9 -9 -37 8 -31 18 5 8 11 7 21 -1 8 -6 12 -14 10 -17z m246 -29 c9 -8
42 -27 75 -43 32 -16 68 -39 79 -52 28 -30 56 -117 58 -180 1 -25 26 -32 26
-8 0 10 6 23 14 27 7 4 15 15 18 23 12 33 -1 -190 -12 -226 -13 -41 -19 -59
-21 -72 0 -4 -8 -19 -17 -34 -13 -22 -13 -29 -2 -43 11 -13 10 -15 -3 -10 -13
5 -14 23 -10 108 2 56 -1 152 -8 212 -14 119 -8 108 -99 189 -42 38 -73 53
-125 60 -71 10 -85 15 -85 32 0 8 -4 14 -10 14 -5 0 -7 7 -4 15 5 12 17 14 58
9 28 -4 58 -13 68 -21z m356 -1 c2 -7 -2 -10 -12 -6 -9 3 -16 11 -16 16 0 13
23 5 28 -10z m-38 -19 c0 -10 -4 -24 -8 -31 -6 -8 -9 -2 -9 18 0 16 4 30 9 30
4 0 8 -8 8 -17z m11 -36 c-10 -9 -11 -8 -5 6 3 10 9 15 12 12 3 -3 0 -11 -7
-18z m-931 -66 c0 -3 -5 -13 -10 -21 -7 -11 -14 -12 -27 -4 -24 15 -27 32 -6
36 20 5 43 -1 43 -11z m596 -116 c18 -15 18 -15 -5 -13 -14 2 -26 9 -29 16 -5
17 10 15 34 -3z m34 -85 c0 -5 -4 -10 -10 -10 -5 0 -10 5 -10 10 0 6 5 10 10
10 6 0 10 -4 10 -10z m-7 -182 c22 -11 46 -37 47 -49 0 -10 -91 9 -106 22 -38
31 10 53 59 27z m-466 -84 c-6 -6 -47 9 -47 17 0 5 11 3 25 -3 14 -6 24 -13
22 -14z m56 -11 c-7 -2 -21 -2 -30 0 -10 3 -4 5 12 5 17 0 24 -2 18 -5z m587
-38 c0 -8 -4 -15 -10 -15 -5 0 -7 7 -4 15 4 8 8 15 10 15 2 0 4 -7 4 -15z
m-495 -135 c-3 -5 -11 -10 -16 -10 -6 0 -7 5 -4 10 3 6 11 10 16 10 6 0 7 -4
4 -10z m-490 -408 c-8 -9 -45 30 -38 41 4 6 14 1 25 -13 10 -12 16 -25 13 -28z
m663 -327 c-3 -3 -9 2 -12 12 -6 14 -5 15 5 6 7 -7 10 -15 7 -18z m-1262 -10
c-1 -8 -10 -23 -21 -34 -14 -16 -21 -18 -32 -10 -11 10 -11 15 3 30 9 10 20
16 25 14 4 -3 10 -1 14 5 9 14 14 12 11 -5z m114 -175 c0 -5 -2 -10 -4 -10 -3
0 -8 5 -11 10 -3 6 -1 10 4 10 6 0 11 -4 11 -10z m-190 -81 c0 -9 -6 -22 -14
-28 -22 -18 -30 5 -15 40 9 22 14 27 20 17 5 -7 9 -20 9 -29z m1840 -204 c0
-5 -5 -3 -10 5 -5 8 -10 20 -10 25 0 6 5 3 10 -5 5 -8 10 -19 10 -25z m-417
16 c4 10 6 9 6 -3 1 -9 -3 -19 -7 -22 -13 -8 -35 11 -27 24 6 10 9 10 15 0 6
-9 9 -9 13 1z m-1718 -11 c-3 -5 -13 -10 -21 -10 -8 0 -14 5 -14 10 0 6 9 10
21 10 11 0 17 -4 14 -10z m2150 -68 c-2 -3 3 -11 13 -18 9 -7 12 -14 6 -14 -5
0 -19 7 -30 15 -11 8 -14 14 -6 15 8 0 11 9 7 28 -5 26 -5 26 5 3 6 -13 8 -26
5 -29z m-1827 -17 c-3 -3 -9 2 -12 12 -6 14 -5 15 5 6 7 -7 10 -15 7 -18z
m-1108 -1 c0 -8 -5 -12 -10 -9 -6 4 -8 11 -5 16 9 14 15 11 15 -7z m1230 -84
c0 -11 -4 -20 -10 -20 -5 0 -10 9 -10 20 0 11 5 20 10 20 6 0 10 -9 10 -20z
m1583 -9 c9 -9 4 -11 -21 -9 -17 1 -32 5 -32 9 0 4 -8 5 -19 2 -10 -3 -22 1
-26 8 -10 16 81 7 98 -10z m-2965 -25 c-1 -14 -7 -22 -15 -19 -9 4 -9 9 0 24
15 25 17 24 15 -5z m1392 -30 c0 -3 -4 -8 -10 -11 -5 -3 -10 -1 -10 4 0 6 5
11 10 11 6 0 10 -2 10 -4z m-1384 -74 c-12 -11 -16 6 -9 39 l8 34 3 -33 c2
-19 1 -36 -2 -40z m5834 48 c0 -5 -2 -10 -4 -10 -3 0 -8 5 -11 10 -3 6 -1 10
4 10 6 0 11 -4 11 -10z m-4470 -205 c-6 -55 -17 -111 -23 -125 -16 -32 -50
-37 -76 -11 -12 12 -26 21 -32 21 -7 0 -9 10 -4 28 4 15 11 53 16 84 5 32 14
69 19 82 9 25 28 42 36 33 6 -5 -11 -113 -21 -139 -5 -13 -2 -18 12 -18 17 0
21 13 32 92 7 50 17 99 21 107 5 9 12 25 17 36 14 35 16 -82 3 -190z m1381
178 c-8 -15 -10 -15 -11 -2 0 17 10 32 18 25 2 -3 -1 -13 -7 -23z m175 7 c16
0 24 -5 23 -17 0 -11 -3 -13 -6 -6 -3 9 -17 11 -44 7 -23 -4 -39 -3 -39 3 0
16 13 24 28 18 7 -3 25 -5 38 -5z m-2033 -42 c-11 -13 -28 -36 -36 -53 l-16
-30 3 29 c2 16 13 37 24 46 12 10 18 20 15 24 -4 3 2 6 12 6 17 0 17 -1 -2
-22z m2031 -21 c20 -12 20 -12 -6 -15 -15 -2 -36 2 -48 8 -11 6 -25 8 -30 5
-6 -3 -10 0 -10 8 0 17 60 13 94 -6z m-256 -89 c3 -14 -3 -18 -27 -18 -29 0
-41 17 -24 34 13 13 48 1 51 -16z m-2636 -30 c-6 -6 -7 0 -4 19 5 21 7 23 10
9 2 -10 0 -22 -6 -28z m539 5 c-4 -15 -12 -28 -19 -31 -15 -5 -15 8 -2 43 13
34 31 24 21 -12z m2143 11 c4 -9 4 -19 2 -22 -10 -9 -36 8 -36 23 0 20 26 19
34 -1z m-63 -34 c10 -6 19 -18 19 -26 0 -12 -7 -14 -32 -9 -40 9 -42 10 -35
30 7 18 21 19 48 5z m569 -15 c41 -9 91 -23 110 -31 19 -7 44 -14 54 -16 20
-3 44 -33 35 -42 -9 -9 -88 26 -86 37 1 7 -15 10 -40 8 -34 -2 -43 1 -43 13 0
18 -16 22 -22 6 -2 -7 -20 -7 -56 1 -41 10 -52 17 -52 32 0 11 5 17 13 15 6
-3 46 -13 87 -23z m-510 -31 c0 -8 -4 -12 -10 -9 -5 3 -10 13 -10 21 0 8 5 12
10 9 6 -3 10 -13 10 -21z m165 -4 c-3 -5 -17 -10 -31 -10 -13 0 -24 5 -24 10
0 6 14 10 31 10 17 0 28 -4 24 -10z m324 -30 c60 -22 68 -27 56 -37 -4 -5 -10
-2 -12 5 -3 6 -9 10 -14 6 -5 -3 -9 0 -9 5 0 6 -12 10 -27 9 -56 -4 -83 2 -83
17 0 20 25 19 89 -5z m-3532 -35 c0 -8 -4 -12 -9 -9 -5 3 -6 10 -3 15 9 13 12
11 12 -6z m3638 -6 c-10 -15 -25 -10 -19 6 4 8 10 12 15 9 5 -3 7 -10 4 -15z
m-2189 -34 c-3 -9 -10 -13 -16 -10 -6 4 -7 -1 -3 -11 4 -12 3 -15 -5 -10 -7 4
-12 2 -12 -3 0 -6 -4 -11 -10 -11 -10 0 5 43 24 68 12 17 31 -1 22 -23z m2278
13 c5 -9 8 -20 5 -23 -9 -8 -79 24 -79 36 0 16 62 6 74 -13z m36 -27 c0 -6 -4
-13 -10 -16 -5 -3 -10 1 -10 9 0 9 5 16 10 16 6 0 10 -4 10 -9z m-3874 -69
c-3 -3 0 -12 6 -21 10 -13 10 -14 -2 -4 -16 15 -23 46 -8 37 5 -3 7 -9 4 -12z
m279 -82 c4 -19 3 -21 -5 -10 -8 12 -10 10 -10 -10 l-1 -25 -15 28 c-22 41
-27 33 -20 -32 4 -33 4 -72 0 -87 -7 -26 -8 -26 -20 -9 -14 18 -14 18 -16 -1
0 -10 0 -28 0 -39 2 -16 0 -17 -8 -5 -5 8 -10 10 -10 4 0 -6 -3 -26 -7 -44 -4
-24 -3 -31 6 -26 6 4 9 12 6 17 -3 5 1 6 9 3 12 -5 12 -9 -2 -35 -10 -16 -20
-29 -23 -29 -11 0 -19 78 -13 123 4 36 4 39 -7 22 -13 -20 -17 -170 -6 -182 4
-3 19 5 36 18 16 13 52 38 80 54 35 21 49 35 45 45 -4 8 -8 28 -10 43 -2 16
-6 32 -9 37 -3 5 0 12 6 16 8 5 8 9 -1 14 -9 5 -10 17 -5 36 l8 29 9 -30 c5
-16 9 -42 9 -57 l0 -27 72 39 c40 21 73 46 75 54 2 9 12 16 23 16 10 0 19 6
19 13 0 7 7 4 15 -7 13 -17 13 -21 -5 -33 -11 -8 -20 -20 -20 -27 0 -7 -32
-30 -72 -50 -76 -39 -98 -54 -98 -66 0 -11 173 78 182 94 5 9 18 20 28 26 16
8 18 8 14 -5 -4 -9 -1 -15 7 -15 27 0 -58 -73 -120 -102 -35 -17 -76 -42 -92
-55 -29 -25 -38 -56 -19 -68 5 -3 7 0 4 9 -3 9 3 19 18 27 21 11 22 11 9 -4
-19 -24 -1 -21 29 4 16 14 19 19 8 15 -28 -9 -21 2 11 19 17 8 37 12 46 9 12
-5 6 -13 -27 -31 -49 -28 -98 -72 -98 -87 0 -6 9 -17 20 -24 21 -13 27 -47 10
-57 -6 -4 -8 -15 -5 -25 3 -10 0 -22 -7 -27 -8 -4 -19 -21 -26 -36 -14 -33
-15 -37 -4 -37 5 0 19 20 31 45 23 45 47 58 57 30 7 -16 -28 -99 -53 -126 -9
-11 -12 -26 -7 -44 5 -19 9 -23 15 -14 12 19 23 4 12 -16 -6 -9 -12 -15 -15
-13 -3 1 -18 -7 -34 -19 -150 -114 -273 -203 -282 -203 -9 0 -26 30 -20 35 85
65 237 183 250 195 9 8 24 21 32 28 9 7 16 17 16 22 0 13 -25 2 -57 -26 -65
-58 -248 -185 -262 -182 -41 8 -23 28 123 137 25 18 60 46 78 62 32 29 32 30
14 44 -11 8 -16 15 -11 15 4 0 5 3 2 7 -4 3 -16 -2 -27 -12 -11 -10 -20 -13
-20 -7 0 7 5 12 10 12 6 0 15 12 20 26 6 14 14 23 19 20 4 -3 19 6 31 19 17
18 21 28 13 36 -8 8 -13 5 -18 -10 -3 -12 -11 -19 -16 -16 -5 4 -12 -1 -15 -9
-3 -9 -10 -16 -15 -16 -5 0 -57 -36 -116 -80 -98 -74 -134 -92 -147 -72 -7 12
16 36 94 94 101 74 133 104 129 116 -2 6 -29 -10 -59 -34 -30 -24 -72 -53 -92
-64 -32 -17 -37 -18 -31 -3 5 12 3 14 -8 9 -19 -11 78 83 124 118 41 32 50 66
17 66 -11 0 -20 -3 -20 -8 0 -4 -10 -13 -22 -20 -15 -8 -11 -2 9 17 l33 31
-10 67 c-22 153 -6 230 55 263 14 7 25 19 25 27 0 7 23 38 50 68 28 30 50 61
51 68 1 11 7 -14 24 -93z m1230 50 c-4 -6 -10 -8 -14 -5 -5 2 -6 -6 -4 -19 3
-16 0 -23 -11 -23 -19 0 -21 26 -5 61 10 21 14 23 26 10 8 -7 11 -18 8 -24z
m1599 -29 c-4 -28 -10 -51 -14 -51 -12 0 -20 29 -11 35 5 2 12 21 16 41 10 53
17 34 9 -25z m-2048 -36 c4 -8 -1 -26 -10 -40 -9 -14 -14 -30 -11 -35 11 -18
-21 -10 -43 10 -27 26 -27 35 -2 60 24 24 58 26 66 5z m2024 -84 c-16 -31 -30
-25 -30 13 0 25 5 36 18 38 21 4 28 -23 12 -51z m-2700 34 c0 -2 -10 -9 -22
-15 -22 -11 -22 -10 -4 4 21 17 26 19 26 11z m493 -2 c-7 -2 -19 -2 -25 0 -7
3 -2 5 12 5 14 0 19 -2 13 -5z m57 -13 c0 -5 -4 -10 -9 -10 -6 0 -13 5 -16 10
-3 6 1 10 9 10 9 0 16 -4 16 -10z m-969 -67 c13 -16 12 -17 -3 -4 -10 7 -18
15 -18 17 0 8 8 3 21 -13z m1475 -28 c-9 -14 -12 -25 -6 -25 5 0 10 -4 10 -9
0 -5 -9 -7 -19 -4 -15 4 -17 10 -11 31 4 15 12 26 19 25 6 -2 11 2 11 9 0 6 3
8 6 5 4 -4 -1 -18 -10 -32z m2543 -62 c1 -13 -3 -23 -9 -23 -5 0 -10 21 -9 48
1 38 2 42 9 22 4 -14 8 -35 9 -47z m-3709 32 c0 -2 -10 -10 -22 -16 -21 -11
-22 -11 -9 4 13 16 31 23 31 12z m300 -56 c-30 -20 -112 -60 -116 -56 -5 4
106 65 121 66 6 0 3 -4 -5 -10z m785 1 c18 -8 17 -9 -7 -9 -16 -1 -28 4 -28 9
0 12 8 12 35 0z m2021 -27 c-11 -11 -19 6 -11 24 8 17 8 17 12 0 3 -10 2 -21
-1 -24z m608 -58 c-3 -18 -2 -35 3 -38 5 -3 38 3 73 14 35 11 71 18 80 16 8
-1 -10 -11 -42 -21 -100 -32 -109 -42 -113 -114 -1 -35 -8 -69 -14 -75 -8 -8
-10 7 -8 61 3 55 0 72 -10 72 -11 0 -10 5 3 25 10 15 14 34 10 49 -7 29 2 58
15 50 5 -3 7 -20 3 -39z m-3558 12 c-11 -7 -34 -25 -53 -41 -18 -16 -36 -26
-39 -23 -9 8 81 76 101 76 6 0 1 -6 -9 -12z m831 -49 c-3 -7 -5 -2 -5 12 0 14
2 19 5 13 2 -7 2 -19 0 -25z m2458 -4 c-6 -19 -19 -43 -28 -52 -16 -15 -17
-14 -17 11 0 30 28 76 46 77 9 0 8 -10 -1 -36z m-2225 2 c0 -18 -10 -25 -26
-19 -8 3 -14 13 -14 23 0 13 5 17 20 13 11 -3 20 -11 20 -17z m-811 -34 c-9
-22 -16 -26 -24 -18 -13 12 -8 47 9 58 20 13 29 -10 15 -40z m-982 -11 c-32
-38 -55 -99 -67 -176 l-9 -60 3 62 c2 69 -3 74 -15 16 -8 -35 -8 -34 -3 7 3
25 5 53 5 62 0 19 98 132 107 124 2 -3 -7 -19 -21 -35z m733 14 c9 -10 9 -15
1 -15 -6 0 -11 -9 -11 -19 0 -45 -19 -61 -49 -42 -18 11 1 47 30 56 16 5 18
10 8 21 -7 8 -7 14 -1 14 5 0 15 -7 22 -15z m3350 -35 c0 -5 -7 -10 -16 -10
-8 0 -12 5 -9 10 3 6 10 10 16 10 5 0 9 -4 9 -10z m-3219 -37 c13 -15 12 -15
-8 -4 -24 12 -29 21 -14 21 5 0 15 -7 22 -17z m-89 -28 c-3 -5 -7 -4 -10 3 -2
7 -8 10 -13 7 -5 -4 -6 1 -3 9 5 12 9 13 19 3 7 -7 10 -16 7 -22z m768 6 c0
-11 -4 -23 -10 -26 -6 -4 -10 5 -10 19 0 14 5 26 10 26 6 0 10 -9 10 -19z
m-700 -16 c9 -11 8 -23 -6 -55 -18 -40 -28 -47 -52 -32 -10 7 -8 19 8 55 22
50 31 55 50 32z m90 5 c0 -5 -2 -10 -4 -10 -3 0 -8 5 -11 10 -3 6 -1 10 4 10
6 0 11 -4 11 -10z m-1039 -23 c-10 -9 -11 -8 -5 6 3 10 9 15 12 12 3 -3 0 -11
-7 -18z m1017 -19 c20 -20 -42 -109 -81 -115 -15 -3 -16 0 -7 17 6 11 15 18
20 15 6 -4 9 2 8 12 -3 26 22 83 36 83 7 0 17 -5 24 -12z m622 -18 c0 -11 -4
-20 -10 -20 -5 0 -10 9 -10 20 0 11 5 20 10 20 6 0 10 -9 10 -20z m2750 -30
c0 -18 6 -33 15 -37 14 -5 14 -8 0 -29 -9 -14 -14 -39 -12 -61 3 -37 4 -38 40
-36 23 2 35 -1 32 -7 -3 -6 -12 -10 -20 -10 -7 0 -21 -7 -30 -16 -29 -29 -45
-10 -38 46 4 33 1 59 -7 75 -10 18 -10 28 -2 38 9 10 9 16 0 25 -12 12 -4 42
12 42 5 0 10 -14 10 -30z m-4086 -25 c-7 -16 -24 -21 -24 -6 0 8 7 13 27 20 1
1 0 -6 -3 -14z m592 3 c4 -6 2 -14 -4 -16 -7 -2 -10 -8 -7 -13 4 -5 -1 -6 -9
-3 -9 3 -16 1 -16 -5 0 -6 5 -11 10 -11 12 0 13 -27 1 -34 -4 -3 -16 0 -26 8
-16 12 -16 15 6 49 26 39 34 44 45 25z m-356 -12 c0 -3 -15 -14 -32 -26 l-33
-22 30 26 c31 27 35 29 35 22z m-274 -29 c-8 -44 -43 -92 -84 -115 -44 -24
-62 -22 -62 6 0 11 21 29 55 47 42 21 55 34 55 51 0 20 11 31 33 33 4 1 6 -9
3 -22z m-249 -19 c-3 -7 -5 -2 -5 12 0 14 2 19 5 13 2 -7 2 -19 0 -25z m533
28 c0 -3 -15 -14 -32 -26 l-33 -22 30 26 c31 27 35 29 35 22z m-80 -30 c0 -2
-8 -10 -17 -17 -16 -13 -17 -12 -4 4 13 16 21 21 21 13z m477 -20 c-5 -17 -47
-20 -47 -3 0 20 9 26 31 20 11 -3 18 -11 16 -17z m683 -18 c0 -4 -7 -8 -15 -8
-10 0 -15 10 -15 28 1 26 1 26 15 8 8 -11 15 -23 15 -28z m-847 17 c-3 -9 -8
-14 -10 -11 -3 3 -2 9 2 15 9 16 15 13 8 -4z m65 -3 c19 -13 4 -41 -19 -35
-19 5 -25 23 -12 36 8 9 15 9 31 -1z m-555 -19 c-7 -2 -13 -14 -13 -24 0 -22
-16 -57 -34 -74 -22 -22 -88 -55 -97 -50 -23 15 -6 43 46 76 30 18 55 38 55
43 0 11 32 36 45 35 6 0 4 -3 -2 -6z m127 3 c0 -2 -8 -10 -17 -17 -16 -13 -17
-12 -4 4 13 16 21 21 21 13z m347 -41 c0 -19 -3 -33 -6 -32 -4 1 -17 -4 -31
-11 l-25 -13 21 19 c16 13 21 27 18 50 -3 23 0 30 10 26 8 -3 14 -19 13 -39z
m153 19 c0 -9 -7 -14 -17 -12 -25 5 -28 28 -4 28 12 0 21 -6 21 -16z m-870
-19 c-14 -17 -30 -20 -30 -5 0 6 7 10 15 10 8 0 15 5 15 12 0 6 3 8 6 5 4 -4
1 -13 -6 -22z m380 21 c0 -2 -8 -10 -17 -17 -16 -13 -17 -12 -4 4 13 16 21 21
21 13z m384 -51 c6 -34 -5 -50 -54 -75 -24 -12 -41 -15 -51 -9 -12 7 -12 9 2
9 8 0 33 24 55 54 21 30 40 53 41 52 1 -1 4 -15 7 -31z m-87 8 c-9 -9 -20 -13
-24 -9 -4 4 -1 11 7 16 25 16 35 11 17 -7z m3973 5 c0 -9 3 -9 12 0 7 7 16 12
21 12 5 0 -1 -8 -14 -18 -49 -38 -155 -58 -143 -28 8 20 53 29 72 14 10 -7 14
-8 10 -4 -4 5 0 15 10 22 21 17 32 17 32 2z m-4695 -8 c-3 -5 -13 -10 -21 -10
-8 0 -12 5 -9 10 3 6 13 10 21 10 8 0 12 -4 9 -10z m885 6 c0 -2 -7 -6 -15
-10 -8 -3 -15 -1 -15 4 0 6 7 10 15 10 8 0 15 -2 15 -4z m3520 -56 c0 -11 -4
-20 -10 -20 -5 0 -10 9 -10 20 0 11 5 20 10 20 6 0 10 -9 10 -20z m-3760 6 c0
-2 -8 -10 -17 -17 -16 -13 -17 -12 -4 4 13 16 21 21 21 13z m-366 -22 c4 -9 5
-18 4 -19 -2 -1 -16 -11 -32 -23 -16 -12 -34 -22 -40 -22 -6 0 4 9 23 21 18
11 31 22 28 25 -3 3 -18 -2 -34 -12 l-28 -18 30 31 c36 36 41 38 49 17z m326
-8 c0 -2 -8 -10 -17 -17 -16 -13 -17 -12 -4 4 13 16 21 21 21 13z m-415 -46
c-3 -5 -12 -10 -18 -10 -7 0 -6 4 3 10 19 12 23 12 15 0z m375 -13 c0 -2 -10
-12 -22 -23 l-23 -19 19 23 c18 21 26 27 26 19z m561 -24 c-12 -20 -14 -14 -5
12 4 9 9 14 11 11 3 -2 0 -13 -6 -23z m-751 -28 c10 -12 9 -16 -5 -21 -19 -8
-40 9 -31 25 10 15 21 14 36 -4z m3701 -42 c-12 -20 -14 -14 -5 12 4 9 9 14
11 11 3 -2 0 -13 -6 -23z m-3533 5 c-6 -25 -61 -88 -77 -88 -6 0 -11 2 -11 4
0 2 -3 11 -6 20 -4 9 -1 16 6 16 7 0 28 14 47 30 37 33 44 36 41 18z m3519
-80 c-3 -8 -6 -5 -6 6 -1 11 2 17 5 13 3 -3 4 -12 1 -19z m-3717 8 c0 -2 -7
-7 -16 -10 -8 -3 -12 -2 -9 4 6 10 25 14 25 6z m-65 -36 c-3 -5 -11 -10 -16
-10 -6 0 -7 5 -4 10 3 6 11 10 16 10 6 0 7 -4 4 -10z m258 3 c-7 -2 -19 -2
-25 0 -7 3 -2 5 12 5 14 0 19 -2 13 -5z m-138 -13 c-3 -5 -12 -10 -18 -10 -7
0 -6 4 3 10 19 12 23 12 15 0z m3665 -9 c0 -22 -16 -36 -24 -22 -8 12 3 41 15
41 5 0 9 -9 9 -19z m-3775 -1 c-3 -5 -12 -10 -18 -10 -7 0 -6 4 3 10 19 12 23
12 15 0z m-40 -20 c-3 -5 -12 -10 -18 -10 -7 0 -6 4 3 10 19 12 23 12 15 0z
m3805 -45 c0 -16 -6 -25 -15 -25 -28 0 -18 40 13 49 1 1 2 -10 2 -24z m290
-115 c0 -5 -5 -10 -11 -10 -5 0 -7 5 -4 10 3 6 8 10 11 10 2 0 4 -4 4 -10z
m-320 -15 c0 -19 -6 -19 -14 0 -3 8 -1 15 4 15 6 0 10 -7 10 -15z"/>
<path d="M3059 2664 c-16 -20 7 -25 25 -5 14 15 14 18 1 18 -8 0 -20 -6 -26
-13z"/>
<path d="M1531 1360 c-12 -22 -21 -45 -19 -50 2 -5 15 13 30 41 16 27 24 49
20 49 -5 0 -18 -18 -31 -40z"/>
<path d="M1458 1293 c-26 -64 -3 -293 29 -293 17 0 17 25 1 42 -7 7 -14 24
-16 38 -11 92 -13 171 -4 203 12 43 6 49 -10 10z"/>
<path d="M1760 1150 c-8 -5 -10 -10 -5 -10 6 0 17 5 25 10 8 5 11 10 5 10 -5
0 -17 -5 -25 -10z"/>
<path d="M1600 1102 c0 -5 -11 -15 -25 -22 -14 -7 -25 -20 -25 -28 0 -15 1
-15 47 13 40 24 50 45 23 45 -11 0 -20 -4 -20 -8z"/>
<path d="M1510 1075 c-10 -12 -10 -19 -2 -27 17 -17 37 5 25 27 -9 15 -11 15
-23 0z"/>
<path d="M1613 1018 c-36 -25 -41 -42 -18 -64 8 -9 15 -24 15 -35 0 -28 19
-23 31 8 8 22 7 30 -5 39 -14 10 -14 13 4 29 20 18 27 45 12 45 -4 0 -22 -10
-39 -22z m27 -62 c0 -3 -4 -8 -10 -11 -5 -3 -10 -1 -10 4 0 6 5 11 10 11 6 0
10 -2 10 -4z"/>
<path d="M1532 973 c-23 -26 -28 -43 -13 -43 5 0 11 9 14 21 3 12 10 18 16 15
13 -8 22 7 13 21 -5 8 -15 3 -30 -14z"/>
<path d="M1570 845 c-8 -10 -9 -15 -2 -15 6 0 9 -6 6 -14 -10 -26 18 -30 37
-5 18 24 15 49 -4 30 -16 -16 -30 -13 -23 4 3 8 4 15 2 15 -2 0 -9 -7 -16 -15z"/>
<path d="M4360 4636 c0 -2 7 -7 16 -10 8 -3 12 -2 9 4 -6 10 -25 14 -25 6z"/>
<path d="M3880 4239 c0 -5 5 -7 10 -4 6 3 10 8 10 11 0 2 -4 4 -10 4 -5 0 -10
-5 -10 -11z"/>
<path d="M3801 4196 c-8 -9 -11 -19 -7 -23 9 -9 29 13 24 27 -2 8 -8 7 -17 -4z"/>
<path d="M3486 4013 c-9 -49 -19 -99 -22 -113 -3 -14 13 13 36 58 38 76 41 87
30 113 -7 16 -16 29 -20 29 -3 0 -14 -39 -24 -87z"/>
<path d="M3551 3989 c0 -9 -10 -24 -22 -35 -50 -45 -64 -111 -34 -158 25 -37
37 -22 34 42 -2 39 3 68 15 90 9 18 15 43 13 55 -2 12 -5 15 -6 6z"/>
<path d="M3452 3815 c0 -16 2 -22 5 -12 2 9 2 23 0 30 -3 6 -5 -1 -5 -18z"/>
<path d="M2005 3739 c-120 -41 -139 -97 -83 -244 44 -112 57 -237 33 -304 -8
-24 -15 -59 -15 -78 0 -18 -7 -44 -15 -57 -13 -19 -14 -32 -5 -72 6 -27 19
-61 30 -75 10 -15 22 -42 25 -62 8 -43 35 -77 61 -77 11 0 37 7 59 15 22 8 47
14 55 14 8 0 -10 -9 -40 -20 -30 -11 -71 -27 -90 -35 l-35 -15 60 5 60 5 -58
-13 c-32 -8 -64 -19 -70 -25 -14 -14 -13 -14 53 4 63 17 167 19 260 5 36 -6
85 -13 110 -16 l45 -5 -30 15 c-16 9 -23 15 -15 15 39 -3 49 4 69 41 12 22 21
43 21 45 0 3 -33 2 -72 -1 -105 -8 -107 -8 -177 -6 -35 1 -61 5 -57 9 4 4 49
12 99 18 l92 10 6 95 c4 52 7 150 8 217 l1 121 44 39 c66 58 129 77 229 69 72
-6 91 -4 156 19 80 27 149 31 228 15 26 -5 93 -12 148 -14 55 -2 136 -11 180
-20 44 -8 84 -11 88 -7 13 13 57 143 52 151 -3 4 -5 49 -6 99 -1 50 -3 91 -4
91 -2 0 -16 -5 -31 -10 -21 -9 -31 -7 -46 7 -25 23 -15 22 -328 28 -151 2
-414 9 -585 15 -422 13 -440 13 -510 -11z m345 -1009 c28 -7 23 -8 -25 -4 -33
2 -93 6 -134 9 -40 2 -76 7 -80 11 -8 9 195 -5 239 -16z"/>
<path d="M3601 3389 c-1 -19 25 -56 34 -48 3 4 0 13 -8 20 -8 8 -16 21 -20 29
-5 13 -6 13 -6 -1z"/>
<path d="M3245 3085 c-5 -2 -97 -31 -202 -65 -153 -49 -197 -67 -213 -87 -25
-33 -26 -52 -1 -29 11 10 63 30 118 46 172 51 348 115 351 128 2 11 -29 15
-53 7z"/>
<path d="M2766 2863 c-4 -4 -28 -8 -54 -9 -26 -1 -58 -4 -72 -7 -14 -4 -37 -9
-52 -13 -54 -11 -119 -113 -87 -136 11 -8 10 -9 -3 -4 -23 7 -24 -19 -2 -28
25 -9 64 -7 64 4 0 6 7 10 15 10 9 0 37 11 63 24 26 13 72 32 104 41 55 18 56
19 63 62 3 23 3 47 0 53 -7 12 -28 13 -39 3z"/>
<path d="M4510 2790 c8 -5 20 -10 25 -10 6 0 3 5 -5 10 -8 5 -19 10 -25 10 -5
0 -3 -5 5 -10z"/>
<path d="M2042 2676 c-34 -7 -68 -19 -75 -26 -10 -10 -8 -11 8 -5 65 24 102
29 215 29 97 0 112 1 65 7 -87 10 -142 9 -213 -5z"/>
<path d="M2365 2654 c28 -7 55 -12 60 -10 13 4 -64 26 -90 25 -11 0 3 -7 30
-15z"/>
<path d="M2022 2626 c-55 -18 -74 -34 -70 -60 1 -12 -1 -27 -6 -34 -13 -21 0
-25 26 -8 13 8 54 22 92 31 55 13 85 14 157 6 49 -6 94 -13 100 -17 6 -3 19 3
30 15 11 11 31 24 44 27 14 3 25 9 25 13 0 30 -321 52 -398 27z m210 -10 c25
-3 28 -9 12 -24 -8 -7 -14 -9 -14 -4 0 4 -30 6 -66 4 -41 -3 -70 0 -77 7 -8 8
-5 11 12 11 14 0 20 4 15 12 -5 8 7 9 47 4 30 -4 62 -9 71 -10z m-201 -15
c-11 -7 -10 -11 5 -20 28 -15 11 -13 -21 3 -23 12 -24 15 -8 19 30 8 39 7 24
-2z m269 -6 c-14 -8 -32 -14 -40 -14 -8 0 -1 6 15 14 40 18 57 18 25 0z m-225
-5 c3 -5 2 -10 -4 -10 -5 0 -13 5 -16 10 -3 6 -2 10 4 10 5 0 13 -4 16 -10z"/>
<path d="M1921 2554 c0 -11 3 -14 6 -6 3 7 2 16 -1 19 -3 4 -6 -2 -5 -13z"/>
<path d="M2071 2519 c-50 -10 -131 -47 -131 -60 0 -13 12 -11 35 5 45 31 137
45 236 36 117 -12 109 -12 109 -1 0 12 -104 31 -159 30 -25 -1 -66 -5 -90 -10z"/>
<path d="M4710 2521 c8 -6 28 -11 43 -11 16 0 38 -5 50 -11 20 -10 20 -10 7 4
-8 8 -37 18 -65 21 -36 5 -46 4 -35 -3z"/>
<path d="M1917 2514 c-4 -4 -7 -14 -7 -23 0 -11 3 -12 11 -4 6 6 10 16 7 23
-2 6 -7 8 -11 4z"/>
<path d="M2062 2455 c-29 -7 -68 -21 -87 -30 -29 -16 -34 -24 -37 -63 -4 -51
3 -58 34 -38 47 30 137 48 220 44 l80 -3 13 40 c8 21 12 41 10 43 -2 2 -21 8
-42 13 -52 12 -128 10 -191 -6z"/>
<path d="M1906 2434 c-4 -10 -1 -14 6 -12 15 5 23 28 10 28 -5 0 -13 -7 -16
-16z"/>
<path d="M1907 2383 c-2 -5 -4 -30 -5 -57 -1 -39 1 -47 11 -37 13 13 18 101 6
101 -4 0 -10 -3 -12 -7z"/>
<path d="M1787 2293 c-4 -3 -4 -23 -1 -45 4 -25 3 -38 -5 -38 -6 0 -11 -7 -11
-15 0 -13 4 -14 20 -5 16 8 20 21 20 60 0 46 -7 60 -23 43z"/>
<path d="M1851 2264 c0 -11 3 -14 6 -6 3 7 2 16 -1 19 -3 4 -6 -2 -5 -13z"/>
<path d="M1742 2215 c0 -25 5 -45 10 -45 4 0 7 20 6 45 0 25 -5 45 -10 45 -4
0 -7 -20 -6 -45z"/>
<path d="M1905 2239 c-4 -6 -5 -13 -2 -16 7 -7 27 6 27 18 0 12 -17 12 -25 -2z"/>
<path d="M4367 2174 c-8 -8 1 -24 14 -24 5 0 9 7 9 15 0 15 -12 20 -23 9z"/>
<path d="M1795 2150 c-3 -5 -1 -10 4 -10 6 0 11 5 11 10 0 6 -2 10 -4 10 -3 0
-8 -4 -11 -10z"/>
<path d="M4422 2138 c6 -18 28 -21 28 -4 0 9 -7 16 -16 16 -9 0 -14 -5 -12
-12z"/>
<path d="M4481 2141 c-7 -5 -12 -14 -10 -20 3 -6 9 -7 18 -2 7 5 12 14 10 20
-3 6 -9 7 -18 2z"/>
<path d="M1750 2114 c0 -14 3 -14 15 -4 8 7 15 14 15 16 0 2 -7 4 -15 4 -8 0
-15 -7 -15 -16z"/>
<path d="M4340 2091 c0 -17 -5 -33 -10 -36 -12 -7 -4 -25 11 -25 5 0 9 11 9
24 0 14 5 28 10 31 15 10 12 35 -5 35 -10 0 -15 -10 -15 -29z"/>
<path d="M4820 2102 c0 -5 20 -13 45 -19 48 -11 60 -8 23 6 -50 18 -68 22 -68
13z"/>
<path d="M4392 2063 c-11 -35 -9 -53 7 -53 10 0 32 71 25 82 -10 16 -21 7 -32
-29z"/>
<path d="M4521 2044 c0 -11 3 -14 6 -6 3 7 2 16 -1 19 -3 4 -6 -2 -5 -13z"/>
<path d="M4819 2058 c-5 -22 -4 -78 1 -78 11 0 61 -52 55 -58 -3 -3 -16 1 -30
8 -33 18 -42 7 -19 -22 16 -19 29 -23 84 -24 107 -2 322 -67 345 -104 7 -12
25 -14 25 -2 0 18 -98 66 -178 88 -198 54 -210 58 -196 72 17 16 34 15 76 -3
20 -8 73 -24 119 -36 46 -11 105 -34 132 -50 51 -31 62 -35 52 -19 -16 26 -93
63 -168 81 -82 20 -181 58 -172 67 2 3 -5 14 -18 25 -25 22 -25 22 55 -16 31
-15 85 -34 120 -41 61 -13 160 -53 166 -68 2 -5 8 -8 13 -8 20 0 -4 21 -50 45
-27 13 -91 35 -144 48 -52 14 -108 33 -124 44 -35 25 -141 62 -144 51z"/>
<path d="M5008 2013 c7 -3 16 -2 19 1 4 3 -2 6 -13 5 -11 0 -14 -3 -6 -6z"/>
<path d="M5175 2005 c51 -22 82 -26 40 -5 -22 11 -47 19 -55 19 -8 0 -1 -6 15
-14z"/>
<path d="M5060 2000 c14 -4 34 -8 45 -8 l20 -1 -20 9 c-11 5 -31 8 -45 8 l-25
0 25 -8z"/>
<path d="M4315 1991 c-3 -5 -1 -12 5 -16 5 -3 10 1 10 9 0 18 -6 21 -15 7z"/>
<path d="M4270 1979 c0 -5 5 -7 10 -4 6 3 10 8 10 11 0 2 -4 4 -10 4 -5 0 -10
-5 -10 -11z"/>
<path d="M4366 1983 c-11 -11 -6 -23 9 -23 8 0 15 4 15 9 0 13 -16 22 -24 14z"/>
<path d="M5300 1951 c0 -5 7 -11 15 -15 8 -3 15 -1 15 3 0 5 -7 11 -15 15 -8
3 -15 1 -15 -3z"/>
<path d="M5230 1946 c0 -2 7 -7 16 -10 8 -3 12 -2 9 4 -6 10 -25 14 -25 6z"/>
<path d="M4257 1923 c-4 -3 -7 -13 -7 -22 1 -13 3 -13 11 2 11 19 8 33 -4 20z"/>
<path d="M4300 1908 c0 -13 -3 -33 -6 -45 -4 -14 -2 -23 5 -23 6 0 11 16 11
35 0 19 5 35 10 35 6 0 10 5 10 10 0 6 -7 10 -15 10 -9 0 -15 -9 -15 -22z"/>
<path d="M4346 1922 c-2 -4 -7 -26 -11 -50 -5 -34 -3 -42 10 -42 8 0 15 6 16
13 1 17 6 40 14 58 6 17 -20 35 -29 21z"/>
<path d="M4241 1864 c0 -11 3 -14 6 -6 3 7 2 16 -1 19 -3 4 -6 -2 -5 -13z"/>
<path d="M5302 1835 c-1 -19 3 -37 9 -41 17 -10 23 4 9 22 -11 12 -11 17 -1
23 9 6 9 10 -2 19 -11 10 -14 5 -15 -23z"/>
<path d="M5375 1800 c3 -5 8 -10 11 -10 2 0 4 5 4 10 0 6 -5 10 -11 10 -5 0
-7 -4 -4 -10z"/>
<path d="M4280 1779 c0 -11 5 -17 10 -14 6 3 10 13 10 21 0 8 -4 14 -10 14 -5
0 -10 -9 -10 -21z"/>
<path d="M4320 1785 c0 -9 5 -15 11 -13 6 2 11 8 11 13 0 5 -5 11 -11 13 -6 2
-11 -4 -11 -13z"/>
<path d="M1525 1695 c100 -94 115 -105 115 -83 0 19 -182 178 -204 178 -6 0
34 -43 89 -95z"/>
<path d="M5372 1760 c0 -14 2 -19 5 -12 2 6 2 18 0 25 -3 6 -5 1 -5 -13z"/>
<path d="M5292 1758 c5 -15 28 -23 28 -10 0 5 -7 13 -16 16 -10 4 -14 1 -12
-6z"/>
<path d="M5280 1701 c0 -11 -4 -23 -10 -26 -15 -10 -12 -42 5 -49 9 -3 18 1
21 9 11 28 9 78 -3 82 -8 3 -13 -4 -13 -16z"/>
<path d="M5510 1691 c0 -10 -3 -32 -6 -50 l-6 -31 31 16 c17 8 31 17 31 18 0
2 -5 17 -11 35 -12 34 -39 43 -39 12z"/>
<path d="M5468 1670 c-7 -24 -3 -38 8 -28 3 4 4 17 2 30 l-3 23 -7 -25z"/>
<path d="M1052 1602 c-15 -71 -15 -87 -1 -135 l10 -39 22 22 c12 11 35 31 51
44 25 20 30 30 30 74 1 59 -12 77 -64 86 l-36 6 -12 -58z"/>
<path d="M5341 1629 c-13 -39 -15 -67 -2 -53 9 10 25 84 17 84 -2 0 -9 -14
-15 -31z"/>
<path d="M5420 1651 c0 -5 5 -13 10 -16 6 -3 10 -2 10 4 0 5 -4 13 -10 16 -5
3 -10 2 -10 -4z"/>
<path d="M5456 1605 c4 -8 8 -15 10 -15 2 0 4 7 4 15 0 8 -4 15 -10 15 -5 0
-7 -7 -4 -15z"/>
<path d="M5311 1534 c0 -11 3 -14 6 -6 3 7 2 16 -1 19 -3 4 -6 -2 -5 -13z"/>
<path d="M1061 1334 c0 -11 3 -14 6 -6 3 7 2 16 -1 19 -3 4 -6 -2 -5 -13z"/>
<path d="M5782 740 c0 -14 2 -19 5 -12 2 6 2 18 0 25 -3 6 -5 1 -5 -13z"/>
<path d="M2726 721 c-5 -13 -10 -38 -11 -55 -5 -45 -11 -78 -34 -191 -12 -55
-26 -145 -31 -200 -6 -55 -13 -128 -16 -163 -6 -53 -5 -62 8 -57 10 4 14 16
12 33 l-4 27 9 -25 c13 -35 13 -82 1 -75 -5 3 -10 1 -10 -4 0 -6 13 -11 29
-11 28 0 29 2 34 58 3 31 16 125 30 207 23 136 32 221 28 267 -1 11 -8 16 -21
13 -16 -3 -20 2 -20 27 0 23 4 29 15 24 20 -7 19 4 -1 19 -13 9 -14 16 -5 33
7 13 8 34 3 59 -8 35 -9 36 -16 14z m24 -216 c0 -6 -7 -12 -15 -12 -8 0 -15 6
-15 12 0 6 7 12 15 12 8 0 15 -6 15 -12z m-22 -101 c-3 -14 -5 -12 -10 9 -3
19 -2 25 4 19 6 -6 8 -18 6 -28z m-41 -126 c-3 -8 -6 -5 -6 6 -1 11 2 17 5 13
3 -3 4 -12 1 -19z m-10 -80 c-3 -8 -6 -5 -6 6 -1 11 2 17 5 13 3 -3 4 -12 1
-19z m-3 -68 c4 -25 3 -31 -4 -20 -5 8 -10 26 -10 39 0 32 6 24 14 -19z"/>
<path d="M5800 730 c0 -5 5 -10 11 -10 5 0 7 5 4 10 -3 6 -8 10 -11 10 -2 0
-4 -4 -4 -10z"/>
<path d="M5780 670 c0 -5 5 -10 11 -10 5 0 7 5 4 10 -3 6 -8 10 -11 10 -2 0
-4 -4 -4 -10z"/>
<path d="M5751 580 c0 -25 9 -81 20 -125 12 -44 24 -121 28 -171 6 -88 26
-144 51 -144 6 0 4 10 -4 23 -8 12 -17 54 -21 92 -3 39 -13 91 -21 117 -8 26
-24 93 -34 150 -14 80 -18 93 -19 58z"/>
<path d="M5790 615 c0 -30 33 -201 44 -227 8 -19 18 -63 22 -98 6 -59 36 -140
51 -140 3 0 3 15 1 33 -6 39 0 60 15 50 6 -4 8 -1 5 8 -3 8 -13 38 -23 67 -9
29 -19 51 -21 49 -3 -2 0 -16 6 -31 12 -33 13 -56 2 -56 -4 0 -16 30 -26 68
-28 102 -29 110 -7 67 24 -48 26 -36 6 74 -14 79 -25 114 -25 78 0 -9 -5 -19
-12 -23 -8 -5 -9 -2 -5 9 3 10 2 17 -3 17 -6 0 -10 11 -10 24 0 14 -4 28 -10
31 -5 3 -10 4 -10 0z m111 -378 c-8 -8 -11 -7 -11 4 0 20 13 34 18 19 3 -7 -1
-17 -7 -23z"/>
<path d="M5826 595 c-3 -8 -1 -15 4 -15 6 0 10 7 10 15 0 8 -2 15 -4 15 -2 0
-6 -7 -10 -15z"/>
<path d="M2797 330 c-10 -40 -27 -155 -27 -178 0 -41 19 -22 25 26 4 26 10 58
15 72 4 14 4 44 0 65 -6 36 -7 37 -13 15z"/>
<path d="M1001 305 c-29 -10 -31 -13 -13 -17 12 -3 29 0 39 7 26 19 14 23 -26
10z"/>
<path d="M1017 229 c-9 -5 -23 -7 -30 -4 -6 4 -3 -1 7 -9 11 -9 24 -16 29 -16
18 0 47 21 42 31 -8 12 -25 11 -48 -2z"/>
<path d="M2825 129 c-5 -31 -10 -38 -17 -28 -8 11 -9 10 -4 -4 9 -27 -11 -67
-34 -67 -11 0 -20 -7 -20 -15 0 -19 7 -19 26 0 15 14 44 11 44 -6 0 -5 7 -9
16 -9 13 0 14 12 8 83 -3 45 -8 83 -9 85 -2 2 -6 -16 -10 -39z"/>
<path d="M5851 104 c0 -11 3 -14 6 -6 3 7 2 16 -1 19 -3 4 -6 -2 -5 -13z"/>
<path d="M5847 51 c-23 -39 -21 -51 7 -51 23 0 24 3 19 37 -3 21 -7 39 -7 40
-1 1 -10 -11 -19 -26z"/>
<path d="M2620 20 c0 -11 5 -20 10 -20 6 0 10 9 10 20 0 11 -4 20 -10 20 -5 0
-10 -9 -10 -20z"/>
</g>
</svg>
