<?xml version="1.0" standalone="no"?>
<!DOCTYPE svg PUBLIC "-//W3C//DTD SVG 20010904//EN"
 "http://www.w3.org/TR/2001/REC-SVG-20010904/DTD/svg10.dtd">
<svg version="1.0" xmlns="http://www.w3.org/2000/svg"
 width="612.000000pt" height="408.000000pt" viewBox="0 0 612.000000 408.000000"
 preserveAspectRatio="xMidYMid meet">

<g transform="translate(0.000000,408.000000) scale(0.100000,-0.100000)"
fill="#000000" stroke="none">
<path d="M0 3935 c0 -159 5 -171 55 -120 14 13 25 21 25 16 0 -4 18 -14 40
-21 22 -7 40 -17 40 -22 0 -13 68 -9 107 7 19 8 43 15 53 15 25 0 35 46 15 76
-8 13 -15 41 -15 63 0 32 4 41 22 47 13 4 27 12 33 19 5 6 22 16 37 23 25 10
29 9 49 -21 13 -18 24 -34 25 -36 2 -2 24 3 50 10 52 16 70 39 54 69 -10 19
-21 20 -300 20 l-290 0 0 -145z"/>
<path d="M766 4046 c-8 -44 2 -86 21 -86 11 0 13 13 11 57 -3 64 -22 81 -32
29z"/>
<path d="M1280 4071 c0 -5 -9 -11 -21 -14 -12 -3 -18 -10 -14 -16 11 -18 29
-12 42 14 6 14 7 25 2 25 -5 0 -9 -4 -9 -9z"/>
<path d="M2460 4069 c0 -6 6 -9 14 -6 8 3 20 -1 26 -9 14 -16 63 -19 91 -4 37
20 19 30 -56 30 -48 0 -75 -4 -75 -11z"/>
<path d="M2680 4067 c0 -7 6 -22 14 -33 12 -15 18 -17 33 -8 10 6 19 21 21 33
3 18 -1 21 -32 21 -23 0 -36 -5 -36 -13z"/>
<path d="M2835 4069 c4 -6 18 -9 32 -6 14 2 40 0 59 -6 26 -8 34 -16 34 -34 0
-14 6 -23 16 -23 8 0 22 -7 30 -15 24 -24 85 -14 105 18 4 6 25 4 55 -7 26 -9
50 -13 53 -9 3 5 17 14 30 21 18 11 25 11 31 2 6 -9 11 -6 20 10 6 12 10 22 8
23 -71 36 -73 36 -276 37 -147 0 -201 -3 -197 -11z"/>
<path d="M3320 4071 c0 -5 12 -11 28 -14 15 -3 35 -9 44 -12 11 -4 20 0 28 14
10 20 8 21 -45 21 -30 0 -55 -4 -55 -9z"/>
<path d="M3554 4007 c0 -53 -6 -82 -20 -105 l-19 -32 -80 4 c-79 5 -82 4 -108
-23 -14 -16 -32 -40 -38 -55 -7 -14 -16 -26 -21 -26 -5 0 -6 -4 -3 -10 3 -5 1
-10 -4 -10 -6 0 -10 -3 -9 -7 4 -10 -8 -14 -24 -8 -77 25 -102 30 -150 27 -55
-4 -56 -4 -68 -43 -7 -21 -16 -39 -21 -39 -4 0 -9 -7 -13 -15 -4 -11 6 -21 32
-33 32 -14 65 -36 110 -73 9 -7 12 -5 13 8 0 11 3 13 6 5 3 -7 1 -20 -3 -30
-9 -22 -11 -29 -13 -48 -1 -10 -7 -14 -16 -10 -19 7 -43 -33 -25 -44 9 -5 9
-9 1 -14 -6 -4 -11 -2 -11 3 0 6 -4 11 -10 11 -5 0 -10 -12 -10 -26 0 -19 4
-25 14 -21 11 4 17 -6 22 -36 l8 -42 8 44 c4 25 13 49 19 55 9 8 10 7 6 -6 -3
-10 -2 -20 4 -23 5 -4 7 -10 4 -14 -2 -5 1 -16 8 -25 11 -16 16 -9 37 54 13
39 27 73 32 76 4 3 8 13 8 22 1 24 30 56 65 70 37 14 131 26 205 24 30 -1 86
-2 123 -2 48 -1 74 -6 90 -18 56 -44 106 -101 113 -127 4 -17 13 -36 21 -43
11 -11 13 -9 13 11 0 28 31 42 50 23 6 -6 11 -7 10 -1 -8 42 0 53 48 60 26 4
52 11 58 16 5 4 44 11 85 14 41 4 94 12 119 20 105 32 127 36 160 33 32 -3 35
-6 33 -33 0 -16 -6 -52 -13 -80 -13 -57 -6 -909 8 -960 10 -35 22 622 22 1188
l0 387 -74 0 c-41 0 -78 -4 -81 -10 -3 -5 -17 -10 -31 -10 -13 0 -24 5 -24 10
0 19 -81 11 -98 -9 -22 -24 -70 -40 -161 -51 -48 -7 -82 -17 -95 -29 -22 -20
-55 -29 -123 -36 l-43 -4 0 70 0 69 -72 0 -73 0 -1 -73z m-26 -204 c2 -8 -5
-13 -16 -13 -30 0 -53 11 -46 22 8 13 57 6 62 -9z m122 -12 c0 -8 7 -11 19 -8
13 3 21 -1 24 -14 4 -16 -1 -19 -33 -19 -22 0 -42 5 -45 11 -4 6 -23 8 -49 4
l-41 -6 28 16 c15 9 27 19 27 23 0 4 16 7 35 7 23 0 35 -5 35 -14z m107 -73
c33 -23 73 -89 73 -122 0 -14 -3 -15 -21 -6 -11 7 -18 17 -15 25 8 23 -64 108
-100 118 -15 4 -14 5 5 6 14 0 40 -9 58 -21z m140 -240 c-3 -8 -6 -5 -6 6 -1
11 2 17 5 13 3 -3 4 -12 1 -19z"/>
<path d="M4789 3973 c0 -60 -3 -157 -5 -218 -2 -60 -1 -105 3 -99 5 7 47 13
105 15 90 4 99 2 113 -17 18 -26 21 -108 6 -146 -9 -24 -16 -28 -52 -28 -22 0
-55 -7 -73 -15 -28 -13 -32 -20 -28 -46 2 -16 -2 -51 -9 -77 -7 -26 -12 -77
-11 -114 1 -57 -2 -69 -18 -78 -26 -14 -28 -13 -33 13 -3 17 -5 15 -6 -9 l-1
-31 101 -7 c140 -9 151 -12 145 -45 -3 -14 -8 -350 -11 -746 -4 -396 -10 -812
-14 -925 -4 -113 -4 -206 1 -208 11 -5 10 -52 -1 -52 -5 0 -12 16 -15 35 -13
69 -119 371 -158 452 -28 58 -38 90 -34 107 4 18 1 29 -13 38 -13 9 -20 26
-20 49 -2 78 -7 108 -24 127 -10 11 -25 41 -33 68 -8 26 -25 66 -38 90 -18 32
-26 66 -31 133 -11 137 -19 148 -145 188 -58 18 -141 43 -185 54 -96 25 -264
84 -320 111 -40 21 -106 82 -138 127 -25 37 -29 22 -10 -37 15 -47 16 -64 4
-155 -7 -56 -14 -140 -16 -187 -6 -157 -16 -304 -32 -445 -10 -93 -17 -286
-20 -571 -5 -429 -5 -432 -27 -443 -20 -11 -20 -11 5 -6 l25 4 13 -213 c7
-118 15 -223 17 -234 5 -17 -2 -21 -48 -33 -29 -7 -77 -13 -106 -12 -35 0 -49
-3 -40 -9 9 -6 3 -8 -17 -6 -16 2 -29 6 -27 11 1 4 2 23 2 42 l0 34 58 4 57 3
-59 2 -58 2 7 213 c4 116 9 215 11 219 7 11 6 724 -2 986 -4 174 -11 257 -20
281 -15 35 -10 125 7 146 10 14 69 18 69 5 0 -5 7 -10 16 -10 19 0 -19 33 -84
74 -33 21 -47 24 -62 16 -29 -16 -45 -13 -30 5 18 22 -2 19 -47 -7 -46 -26
-72 -47 -83 -69 -8 -13 -5 -15 14 -12 18 4 28 -3 44 -31 36 -62 34 -98 -13
-241 -24 -71 -51 -173 -59 -225 -19 -111 -72 -710 -96 -1075 -10 -153 -30
-358 -35 -364 -2 -2 -25 0 -51 4 -47 7 -49 20 -4 28 16 3 9 5 -18 6 -48 1
-117 31 -92 39 8 3 35 11 60 18 l45 12 -68 1 c-65 1 -128 18 -140 38 -4 6 1
49 10 96 l15 86 39 -22 c21 -12 41 -19 45 -15 9 9 -21 54 -54 83 -25 21 -25
23 -10 61 9 21 21 40 27 40 6 1 13 2 15 3 3 0 -1 13 -9 27 -15 30 -10 55 9 48
10 -4 12 11 8 63 -5 80 -5 163 1 169 2 3 16 0 31 -5 l26 -11 0 75 c0 64 -3 76
-21 89 -20 14 -20 16 -5 31 9 9 16 22 16 28 0 7 -4 6 -10 -3 -13 -20 -13 6 0
262 13 253 36 528 55 633 7 44 16 103 20 130 11 92 16 107 29 96 18 -15 26 -3
26 41 0 21 7 55 15 75 32 76 18 79 -47 11 -75 -77 -183 -133 -386 -199 -191
-62 -282 -101 -300 -129 -13 -18 -18 -53 -20 -150 -5 -176 -10 -260 -18 -290
-4 -14 -8 -68 -9 -121 -2 -81 -5 -101 -24 -127 -12 -17 -25 -50 -30 -74 -5
-24 -18 -79 -30 -123 -12 -44 -26 -127 -33 -185 -6 -58 -14 -109 -19 -114 -4
-4 -60 -10 -125 -13 -65 -2 -137 -8 -161 -12 -72 -14 -75 2 -27 126 26 67 29
96 15 152 -5 20 -17 67 -27 105 -21 85 -58 130 -134 164 -58 25 -106 26 -192
2 -42 -12 -98 -65 -136 -129 -28 -49 -34 -116 -18 -218 5 -28 6 -62 3 -76 l-7
-24 -202 -7 c-112 -4 -311 -6 -443 -5 -340 3 -374 2 -391 -11 -21 -18 -17 -51
11 -92 14 -20 25 -40 25 -44 0 -3 21 -27 47 -53 83 -82 232 -258 243 -287 14
-35 4 -81 -20 -94 -10 -5 -44 -13 -75 -16 -62 -8 -75 0 -75 45 0 13 -12 46
-27 74 -23 41 -37 54 -79 73 -48 21 -50 23 -46 57 3 29 -1 41 -22 62 -22 22
-29 24 -47 15 -28 -15 -49 -6 -49 22 0 13 -14 36 -30 52 -32 31 -36 41 -21 50
12 8 3 43 -12 49 -7 2 -29 2 -50 -1 -38 -4 -38 -4 -21 -29 21 -33 7 -46 -34
-32 -71 25 -70 78 4 169 l56 69 6 108 c22 370 -17 513 -147 542 -26 6 -56 13
-68 17 l-23 6 0 -649 0 -650 53 -7 c28 -3 81 -6 117 -6 75 0 90 -10 90 -56 0
-18 5 -36 11 -39 5 -4 64 1 130 10 122 18 148 14 136 -17 -3 -10 -44 -18 -142
-27 -133 -13 -137 -14 -146 -40 -6 -14 -20 -36 -31 -48 l-21 -22 23 -57 c22
-54 23 -57 6 -70 -19 -14 -101 -27 -178 -28 l-48 -1 0 -107 0 -108 543 0 544
0 11 51 c7 28 12 63 12 79 0 16 5 41 12 57 6 15 11 71 12 123 1 72 5 101 18
120 10 14 25 62 34 105 18 93 105 281 133 290 10 3 25 3 33 0 9 -4 33 1 54 10
79 34 134 46 178 40 28 -5 46 -3 50 4 4 6 0 11 -8 11 -30 0 -16 32 32 77 26
24 63 51 82 59 47 20 191 24 213 5 24 -19 21 -25 -17 -39 -19 -7 -39 -19 -46
-27 -10 -12 -7 -15 17 -20 40 -8 110 -25 168 -42 28 -8 61 -17 75 -20 14 -2
42 -13 62 -24 29 -15 37 -17 32 -6 -3 8 0 18 7 23 8 4 10 3 5 -5 -4 -6 -1 -23
8 -36 10 -15 14 -35 10 -54 -4 -17 -2 -37 4 -43 6 -7 13 -47 16 -88 4 -59 3
-70 -6 -52 -13 26 -26 28 -42 7 -9 -11 -19 -12 -51 -5 -22 5 -68 10 -103 10
-65 0 -107 14 -97 31 6 9 -67 13 -77 3 -10 -9 4 -44 18 -44 26 0 24 -20 -3
-31 -20 -7 -33 -7 -45 0 -22 14 -128 14 -128 1 0 -5 -7 -10 -15 -10 -8 0 -15
4 -15 9 0 5 -10 13 -22 17 -13 4 -26 11 -29 17 -7 10 -49 -26 -49 -43 0 -5 8
-10 18 -11 37 -2 -46 -19 -101 -20 -64 -2 -77 -11 -53 -38 24 -27 19 -49 -15
-66 -24 -13 -34 -14 -45 -4 -16 13 -19 45 -4 54 6 3 10 14 10 23 0 15 -10 16
-82 12 -81 -5 -113 -22 -65 -34 14 -3 27 -15 30 -26 6 -21 -16 -50 -37 -50 -7
0 -21 -9 -30 -19 -17 -19 -17 -21 0 -49 17 -29 16 -33 -1 -87 -17 -54 -27
-125 -29 -205 l-1 -35 1732 -3 1731 -2 32 52 c17 29 47 78 66 108 18 30 34 63
34 73 0 10 20 64 44 120 25 56 48 116 52 132 4 17 10 35 14 40 3 6 12 30 19
55 15 54 41 113 47 107 5 -4 -7 -37 -30 -86 -6 -13 -11 -47 -10 -74 0 -36 -2
-45 -8 -31 -6 14 -7 13 -2 -6 3 -14 8 -36 10 -50 4 -22 3 -23 -5 -5 -7 15 -10
4 -10 -45 -1 -36 -8 -128 -16 -205 -8 -77 -15 -150 -15 -162 0 -23 2 -23 130
-23 l130 0 2 758 c4 1413 3 2127 -4 2227 -6 80 -4 102 7 115 12 14 17 96 25
456 5 241 10 458 10 482 l0 42 -210 0 -210 0 -1 -107z m41 -13 c0 -17 -12 -40
-21 -40 -5 0 -9 13 -9 30 0 22 4 28 15 24 8 -4 15 -10 15 -14z m-4700 -2706
c0 -8 -7 -14 -15 -14 -15 0 -21 21 -9 33 10 9 24 -2 24 -19z m4890 -45 c0 -5
-4 -9 -10 -9 -5 0 -10 7 -10 16 0 8 5 12 10 9 6 -3 10 -10 10 -16z m-530 -163
c0 -7 12 -35 26 -61 14 -27 24 -60 23 -74 -2 -18 7 -36 29 -58 32 -31 41 -53
22 -53 -5 0 -10 -10 -10 -22 0 -26 -82 -278 -91 -278 -4 0 -9 30 -12 68 -4 37
-11 103 -17 147 -12 97 -40 406 -40 455 0 32 2 29 35 -39 19 -40 35 -78 35
-85z m530 70 c0 -3 -4 -8 -10 -11 -5 -3 -10 -1 -10 4 0 6 5 11 10 11 6 0 10
-2 10 -4z m-4935 -15 c3 -6 -3 -15 -14 -21 -21 -11 -37 2 -26 20 8 13 32 13
40 1z m2670 -76 l-10 -40 -3 39 c-2 22 0 51 4 65 l7 26 6 -25 c4 -14 2 -43 -4
-65z m-45 -155 c0 -5 -8 -10 -17 -10 -15 0 -16 2 -3 10 19 12 20 12 20 0z
m-997 -327 c-7 -2 -19 -2 -25 0 -7 3 -2 5 12 5 14 0 19 -2 13 -5z m-956 -96
c-5 -33 -16 -49 -64 -93 -38 -36 -60 -49 -64 -41 -4 7 -5 41 -2 77 l5 65 41 3
c27 2 45 9 55 23 20 29 35 12 29 -34z m896 -235 c73 -20 98 -35 81 -52 -16
-16 -121 0 -149 22 -26 21 -33 48 -12 48 6 0 42 -9 80 -18z m492 -24 c31 -14
32 -24 4 -39 -26 -13 -307 -17 -357 -5 -47 12 -39 39 13 47 74 11 313 10 340
-3z m1413 -25 c-10 -2 -26 -2 -35 0 -10 3 -2 5 17 5 19 0 27 -2 18 -5z"/>
<path d="M641 344 c0 -11 3 -14 6 -6 3 7 2 16 -1 19 -3 4 -6 -2 -5 -13z"/>
<path d="M6105 4070 c3 -5 8 -10 11 -10 2 0 4 5 4 10 0 6 -5 10 -11 10 -5 0
-7 -4 -4 -10z"/>
<path d="M2691 3980 c-1 -8 -4 -25 -7 -37 -5 -17 -2 -23 10 -23 17 0 20 23 6
55 -6 13 -9 15 -9 5z"/>
<path d="M2680 3895 c0 -8 9 -19 20 -25 18 -9 20 -8 20 15 0 18 -5 25 -20 25
-11 0 -20 -7 -20 -15z"/>
<path d="M3181 3889 c-23 -9 -24 -11 -8 -26 16 -16 18 -16 34 0 23 22 6 38
-26 26z"/>
<path d="M3040 3865 c0 -11 11 -15 40 -15 29 0 40 4 40 15 0 11 -11 15 -40 15
-29 0 -40 -4 -40 -15z"/>
<path d="M572 3849 c-12 -19 -11 -20 10 -17 13 2 23 9 23 17 0 23 -19 23 -33
0z"/>
<path d="M2950 3860 c-13 -9 -13 -11 0 -20 8 -5 24 -7 35 -4 26 8 28 11 20 23
-8 14 -35 14 -55 1z"/>
<path d="M756 3825 c-3 -8 0 -26 6 -40 9 -19 14 -22 25 -14 16 14 17 41 1 57
-16 16 -25 15 -32 -3z"/>
<path d="M3295 3342 c-22 -2 -42 -7 -45 -12 -3 -5 -22 -16 -42 -25 -34 -14
-38 -14 -47 3 -10 15 -11 15 -17 -5 -3 -13 -10 -20 -15 -17 -5 3 -9 1 -9 -5 0
-5 6 -12 13 -14 6 -3 1 -6 -13 -7 l-25 -1 23 -11 c18 -9 22 -20 23 -62 l1 -51
8 53 c10 64 17 74 25 36 22 -101 46 -124 132 -124 76 0 98 14 127 81 14 33 32
59 40 59 8 0 20 -17 27 -37 19 -61 41 -93 64 -92 17 1 17 2 2 6 -22 6 -44 49
-53 100 -9 60 9 73 98 67 40 -3 79 -7 86 -10 8 -2 12 3 10 13 -2 12 -20 21
-57 29 -59 14 -69 12 -122 -23 -44 -29 -79 -24 -124 17 -35 32 -55 38 -110 32z
m65 -64 c0 -6 -7 -8 -15 -4 -8 3 -15 1 -15 -4 0 -6 -10 -10 -22 -10 -28 0 -55
-16 -45 -26 3 -4 13 -1 22 6 12 10 15 10 15 -4 0 -19 50 -23 51 -3 0 10 2 10
6 0 7 -18 38 -16 57 2 13 14 14 11 9 -22 -11 -74 -46 -103 -123 -103 -58 0
-86 15 -99 51 -14 40 -14 106 -1 114 5 3 7 0 4 -8 -4 -12 1 -13 28 -8 18 4 32
11 30 16 -2 5 4 12 13 15 24 8 85 0 85 -12z m30 2 c0 -5 -4 -10 -10 -10 -5 0
-10 5 -10 10 0 6 5 10 10 10 6 0 10 -4 10 -10z"/>
<path d="M4788 3253 c7 -65 12 -67 12 -5 0 29 -4 52 -9 52 -5 0 -6 -21 -3 -47z"/>
<path d="M3744 3272 c14 -16 17 -31 13 -59 l-6 -38 11 33 11 32 58 -5 c47 -4
59 -2 59 10 0 11 -10 13 -45 8 -37 -4 -45 -2 -45 11 0 9 -6 16 -12 16 -7 0
-24 3 -38 7 -25 6 -25 6 -6 -15z"/>
<path d="M3595 3261 c-6 -5 -18 -11 -27 -13 -13 -2 -15 -7 -8 -18 8 -12 13
-13 30 -2 17 10 20 10 20 -3 0 -9 9 -15 25 -15 14 0 25 5 25 12 0 9 3 9 12 0
14 -14 28 -16 28 -4 0 13 -47 32 -76 32 -14 0 -22 4 -19 10 8 12 2 13 -10 1z"/>
<path d="M3715 3240 c3 -5 10 -10 16 -10 5 0 9 5 9 10 0 6 -7 10 -16 10 -8 0
-12 -4 -9 -10z"/>
<path d="M3724 3132 c-8 -12 -31 -19 -75 -23 l-64 -6 56 -1 c43 -2 63 3 80 17
13 11 22 22 19 25 -3 3 -11 -3 -16 -12z"/>
<path d="M3130 3095 c0 -5 5 -17 10 -25 5 -8 10 -10 10 -5 0 6 -5 17 -10 25
-5 8 -10 11 -10 5z"/>
<path d="M3403 3051 c6 -23 -14 -42 -60 -60 -17 -7 -39 -21 -48 -31 -28 -31
-2 -46 74 -42 42 3 59 7 50 13 -8 5 -25 9 -39 9 -57 1 10 20 86 24 93 5 84 3
84 17 0 15 -30 38 -49 39 -8 0 -23 8 -34 18 -15 12 -21 14 -24 4 -3 -6 -9 -10
-13 -7 -5 3 -7 12 -3 20 3 10 -1 15 -12 15 -12 0 -16 -6 -12 -19z"/>
<path d="M3500 3050 c0 -5 7 -10 16 -10 8 0 12 5 9 10 -3 6 -10 10 -16 10 -5
0 -9 -4 -9 -10z"/>
<path d="M3580 2971 c-23 -6 -24 -7 -5 -14 16 -7 17 -10 5 -17 -13 -8 -12 -10
0 -14 8 -3 26 -7 40 -8 31 -4 40 28 13 47 -20 16 -18 16 -53 6z"/>
<path d="M3193 2935 c0 -22 2 -30 4 -17 2 12 2 30 0 40 -3 9 -5 -1 -4 -23z"/>
<path d="M3252 2883 c2 -24 8 -37 16 -35 6 1 12 -2 12 -8 0 -5 -4 -10 -10 -10
-5 0 -10 -8 -11 -17 0 -14 -2 -15 -6 -3 -3 8 -9 17 -13 20 -4 3 -12 14 -18 25
-10 18 -11 18 -12 2 0 -39 59 -115 103 -130 20 -7 21 -3 6 22 -9 14 -9 25 4
49 12 25 13 37 3 65 -10 31 -13 33 -26 18 -13 -14 -16 -13 -24 12 -14 39 -28
33 -24 -10z"/>
<path d="M3430 2872 c0 -12 22 -32 35 -32 5 0 3 5 -5 10 -13 8 -13 10 2 10 9
0 20 5 23 10 4 6 -7 10 -24 10 -17 0 -31 -4 -31 -8z"/>
<path d="M3356 2817 c3 -10 9 -15 12 -12 3 3 0 11 -7 18 -10 9 -11 8 -5 -6z"/>
<path d="M3385 2808 c-10 -25 -3 -39 14 -29 10 6 11 13 3 27 -10 18 -11 18
-17 2z"/>
<path d="M3712 2785 c-17 -14 -44 -28 -61 -31 -17 -4 -31 -12 -31 -19 0 -8
-13 -16 -30 -20 -30 -7 -47 -21 -36 -32 12 -12 125 50 163 89 42 43 39 50 -5
13z"/>
<path d="M3417 2744 c-26 -14 -26 -16 -13 -43 14 -26 17 -27 73 -23 32 2 59 5
60 6 9 8 -25 56 -39 56 -10 0 -18 5 -18 10 0 14 -31 12 -63 -6z"/>
<path d="M5443 1160 c0 -25 2 -35 4 -22 2 12 2 32 0 45 -2 12 -4 2 -4 -23z"/>
<path d="M5442 1033 c-1 -8 -18 -13 -42 -13 -29 0 -40 -4 -40 -15 0 -11 -11
-15 -40 -15 -38 0 -40 -2 -40 -30 0 -28 2 -30 40 -30 36 0 40 -2 40 -25 0 -14
5 -25 10 -25 6 0 10 -18 10 -40 0 -38 -1 -40 -25 -34 -19 5 -25 2 -25 -9 0 -9
-11 -24 -25 -35 -21 -17 -25 -28 -25 -71 0 -28 5 -51 10 -51 6 0 10 -60 10
-160 0 -136 2 -160 15 -160 11 0 15 -11 15 -40 0 -29 -4 -40 -15 -40 -11 0
-15 -11 -15 -40 0 -29 4 -40 15 -40 12 0 15 -16 15 -80 l0 -80 54 0 54 0 7
322 c5 279 4 747 -3 711z"/>
<path d="M3052 1019 c5 -16 98 -85 97 -72 0 4 -23 25 -51 47 -28 21 -48 32
-46 25z"/>
<path d="M5863 993 l-103 -4 0 -34 0 -35 180 0 180 0 0 40 0 40 -77 -2 c-43
-1 -124 -4 -180 -5z"/>
<path d="M1640 861 c0 -5 9 -11 20 -14 13 -3 20 0 20 9 0 8 -9 14 -20 14 -11
0 -20 -4 -20 -9z"/>
<path d="M1752 821 c14 -23 63 -38 141 -45 63 -5 79 10 20 19 -21 3 -57 15
-81 26 -23 10 -54 19 -67 19 -22 0 -24 -2 -13 -19z"/>
<path d="M1848 723 c7 -3 16 -2 19 1 4 3 -2 6 -13 5 -11 0 -14 -3 -6 -6z"/>
<path d="M1976 707 l-30 -13 23 -16 c28 -20 66 -10 66 18 0 23 -21 27 -59 11z"/>
<path d="M1810 681 c0 -5 7 -11 15 -15 9 -3 15 0 15 9 0 8 -7 15 -15 15 -8 0
-15 -4 -15 -9z"/>
<path d="M1450 520 c0 -5 5 -10 10 -10 6 0 10 5 10 10 0 6 -4 10 -10 10 -5 0
-10 -4 -10 -10z"/>
<path d="M3733 463 c9 -2 23 -2 30 0 6 3 -1 5 -18 5 -16 0 -22 -2 -12 -5z"/>
<path d="M1 370 l0 -65 15 37 c14 33 14 39 0 65 -15 28 -15 27 -15 -37z"/>
<path d="M6076 45 c-3 -8 -12 -15 -19 -15 -8 0 -20 -7 -27 -15 -11 -13 -6 -15
39 -15 50 0 51 1 51 30 0 23 -5 30 -19 30 -10 0 -21 -7 -25 -15z"/>
</g>
</svg>
